<?xml version="1.0" encoding="UTF-8"?>
<svg version="1.1" xmlns="http://www.w3.org/2000/svg" width="3609" height="795">
<path d="M0 0 C95.17670266 0 95.17670266 0 112.7265625 16.6640625 C126.78077855 31.10464875 134.56399875 50.89404344 143.409729 68.74041748 C146.25480927 74.47933026 149.10628444 80.21506249 151.9609375 85.94921875 C152.42502644 86.88191904 152.42502644 86.88191904 152.89849091 87.83346176 C156.48866242 95.0438864 160.12563606 102.22343729 163.9140625 109.33203125 C168.29063293 117.54773179 172.46989988 125.85838759 176.625 134.1875 C177.13277418 135.20521705 177.13277418 135.20521705 177.65080643 136.24349403 C180.45814353 141.87220665 183.2602554 147.50351721 186.06225586 153.1348877 C188.49748263 158.02860059 190.93457113 162.92137903 193.375 167.8125 C193.88234649 168.82938054 193.88234649 168.82938054 194.3999424 169.86680412 C198.61400808 178.30630401 202.89768653 186.70198035 207.32914734 195.02980042 C212.58366921 204.93076707 217.57591805 214.96581826 222.58813477 224.9909668 C224.32328988 228.45906602 226.06485968 231.92389653 227.80664062 235.38867188 C228.93007855 237.63261676 230.05313892 239.87675072 231.17578125 242.12109375 C231.68732254 243.13699081 232.19886383 244.15288788 232.72590637 245.1995697 C242 263.8062399 242 263.8062399 242 268 C242.66 268 243.32 268 244 268 C244.11214844 267.29649414 244.22429688 266.59298828 244.33984375 265.86816406 C245.06908596 262.69984399 246.19516761 260.05919903 247.5625 257.109375 C248.10245605 255.9435791 248.64241211 254.7777832 249.19873047 253.57666016 C249.79847606 252.30078804 250.39892221 251.02524504 251 249.75 C251.30955627 249.08941589 251.61911255 248.42883179 251.93804932 247.74822998 C257.34362369 236.22940868 263.08337889 224.90311627 268.96118164 213.61962891 C276.64227665 198.85913821 284.04672031 183.96203804 291.45068359 169.06103516 C295.82905543 160.26088631 300.23411524 151.48423381 304.84765625 142.8046875 C311.47553784 130.32734744 317.71057449 117.65005522 324 105 C337.74543032 77.35352381 337.74543032 77.35352381 344.66297913 64.34785461 C347.08701782 59.77811772 349.41686032 55.17651825 351.65234375 50.51171875 C361.81981155 29.32597428 371.61525408 11.26733442 395 3 C424.57258997 -3.82444384 455.65018763 0 486 0 C486 143.22 486 286.44 486 434 C409.89277899 434 409.89277899 434 399.015625 424.21484375 C394.62749063 419.65444791 392.42981102 415.12619027 391 409 C390.82778962 408.32418286 390.65557924 407.64836573 390.47815037 406.95206928 C389.80953812 402.82410075 389.8463801 398.76660037 389.84178162 394.59111023 C389.83684364 393.63945396 389.83190566 392.68779769 389.82681805 391.70730335 C389.81145313 388.51670333 389.80308511 385.32612342 389.79467773 382.13549805 C389.78509843 379.84907352 389.77508831 377.56265076 389.76467896 375.27622986 C389.73762959 369.06599151 389.71662015 362.85574556 389.69667697 356.64548087 C389.67481765 350.15652819 389.64742869 343.66759894 389.62062073 337.17866516 C389.57636818 326.28635667 389.53553304 315.39404026 389.49731445 304.50170898 C389.45794229 293.28327496 389.41651195 282.06485164 389.37231445 270.84643555 C389.36959018 270.15476619 389.36686591 269.46309683 389.36405908 268.7504678 C389.35037932 265.28051631 389.3366591 261.81056498 389.32291877 258.34061372 C389.20900719 229.5604317 389.1022589 200.78022569 389 172 C388.36004703 173.28358808 388.36004703 173.28358808 387.70716572 174.59310722 C386.0999336 177.81615796 384.49139345 181.03855449 382.8824892 184.2607708 C382.19083778 185.64640791 381.49952515 187.0322142 380.80857944 188.41820335 C376.09643015 197.86971427 371.28982515 207.26066753 366.33349609 216.58691406 C362.51577415 223.77995667 358.83209579 231.0425832 355.12954712 238.29534912 C352.83907183 242.78161731 350.54456571 247.26582287 348.25 251.75 C347.79611404 252.63710663 347.34222809 253.52421326 346.87458801 254.4382019 C343.04083559 261.92768638 339.18339824 269.40465948 335.3125 276.875 C329.89836997 287.32399689 324.50485032 297.78332171 319.125 308.25 C318.36190004 309.73453892 317.59879783 311.21907668 316.83569336 312.70361328 C316.45799301 313.43838898 316.08029266 314.17316467 315.69114685 314.9302063 C315.31353714 315.66480072 314.93592743 316.39939514 314.546875 317.15625 C313.97991661 318.25922928 313.97991661 318.25922928 313.40150452 319.38449097 C309.39661983 327.1750287 305.38668099 334.96296015 301.375 342.75 C301.03036713 343.41897308 300.68573425 344.08794617 300.33065796 344.77719116 C292.56213919 359.85578044 284.78134481 374.92802582 277 390 C254.56 390 232.12 390 209 390 C203.19278505 378.9662916 197.39310623 367.93913442 191.72192383 356.83642578 C189.13909116 351.78271265 186.55275981 346.73079933 183.96484375 341.6796875 C183.53471481 340.84009491 183.10458588 340.00050232 182.66142273 339.13546753 C179.06601582 332.1210688 175.44656265 325.11946152 171.8125 318.125 C166.75199848 308.38463113 161.71234365 298.63379548 156.6875 288.875 C156.33195038 288.18452576 155.97640076 287.49405151 155.6100769 286.78265381 C153.4364933 282.56138097 151.26338241 278.33986491 149.09039307 274.11828613 C145.85269171 267.82846451 142.6141253 261.53908842 139.375 255.25 C139.02142426 254.56347351 138.66784851 253.87694702 138.30355835 253.1696167 C132.77842158 242.44254101 127.2385573 231.72316534 121.69213867 221.00708008 C116.68080968 211.32225698 111.68186964 201.63107883 106.6875 191.9375 C106.31447754 191.21369141 105.94145508 190.48988281 105.55712891 189.74414062 C104.50004846 187.69285092 103.4433181 185.6413813 102.38671875 183.58984375 C102.07284714 182.98079697 101.75897552 182.37175018 101.43559265 181.74424744 C99.93941955 178.83803804 98.45874128 175.92514731 97 173 C96.99761165 174.17429691 96.99522329 175.34859383 96.99276257 176.55847549 C96.93533382 204.46875069 96.86255449 232.37895342 96.77101372 260.28913821 C96.75974631 263.72856574 96.74860773 267.16799367 96.73754883 270.60742188 C96.73534514 271.29211555 96.73314146 271.97680922 96.730871 272.68225119 C96.69555219 283.75129245 96.67065754 294.82033366 96.64965298 305.88941029 C96.62784767 317.25744 96.59453215 328.62538614 96.55129844 339.99335837 C96.52739256 346.37431013 96.50864644 352.75518157 96.50238609 359.13617706 C96.49632343 365.14767052 96.4762805 371.15895853 96.44572449 377.17037582 C96.43696326 379.3712992 96.43321769 381.57224945 96.43499184 383.77318954 C96.45162476 413.94061349 96.45162476 413.94061349 88.3828125 422.76953125 C67.01916998 443.14649952 21.56193717 434 0 434 C0 290.78 0 147.56 0 0 Z " fill="#EC1C23" transform="translate(1882,73)"/>
<path d="M0 0 C3.46915048 -0.03730269 6.9260239 0.01093252 10.39453125 0.08984375 C11.15233887 0.10241211 11.91014648 0.11498047 12.69091797 0.12792969 C81.87224517 1.44566925 147.94657375 22.4480276 209.39453125 53.08984375 C210.21904785 53.50008789 211.04356445 53.91033203 211.89306641 54.33300781 C221.57207583 59.19123188 230.51988137 64.91350795 239.39453125 71.08984375 C240.08869141 71.57001953 240.78285156 72.05019531 241.49804688 72.54492188 C251.00708297 79.13338681 260.30738559 85.92990482 269.39453125 93.08984375 C270.66490234 94.08564453 270.66490234 94.08564453 271.9609375 95.1015625 C288.22393372 107.97099611 304.12989729 121.59065988 318.6640625 136.39453125 C320.5524213 138.29561976 320.5524213 138.29561976 323.45703125 140.58984375 C326.45981252 143.14540228 328.86244314 145.85856324 331.41015625 148.8515625 C333.64357447 151.37075274 335.99776856 153.72576418 338.39453125 156.08984375 C342.61138214 160.26870499 346.54721237 164.57309139 350.39453125 169.08984375 C351.27379862 170.09457424 352.15409348 171.09840605 353.03515625 172.1015625 C360.29397487 180.4072328 367.09255282 189.00095429 373.70166016 197.83056641 C375.42859769 200.13530824 377.16746459 202.43075111 378.90625 204.7265625 C387.00890188 215.49629085 394.40416123 226.57015148 401.39453125 238.08984375 C401.82185547 238.78754883 402.24917969 239.48525391 402.68945312 240.20410156 C410.19704907 252.49617949 416.98098621 265.19519187 423.39453125 278.08984375 C423.81508789 278.9303125 424.23564453 279.77078125 424.66894531 280.63671875 C425.0450293 281.425625 425.42111328 282.21453125 425.80859375 283.02734375 C426.14068848 283.71699219 426.4727832 284.40664063 426.81494141 285.1171875 C427.5319416 287.55752515 427.35045628 288.74448933 426.39453125 291.08984375 C424.2080409 293.10768735 422.06017851 294.91281612 419.70703125 296.71484375 C419.03220703 297.24190918 418.35738281 297.76897461 417.66210938 298.31201172 C411.04778566 303.43950216 404.28559451 308.34241118 397.39453125 313.08984375 C396.81799805 313.48880859 396.24146484 313.88777344 395.64746094 314.29882812 C327.72137304 361.08984375 327.72137304 361.08984375 307.39453125 361.08984375 C307.07742188 359.92453125 306.7603125 358.75921875 306.43359375 357.55859375 C295.60462924 319.01705266 276.26705924 283.94158064 248.87109375 254.75390625 C246.84854835 252.57823438 244.92284861 250.36819902 243.01953125 248.08984375 C237.96473041 242.27682278 232.14099763 237.20241133 226.39453125 232.08984375 C225.88148438 231.63206543 225.3684375 231.17428711 224.83984375 230.70263672 C209.23817003 216.88444448 192.02424726 205.14538179 174.39453125 194.08984375 C173.7406543 193.67927734 173.08677734 193.26871094 172.41308594 192.84570312 C109.22201109 153.44776267 21.80852291 113.97331143 -54.3125 131.08984375 C-71.00081803 135.21271592 -87.3743505 142.45520516 -97.0703125 157.30859375 C-100.93992492 164.31918928 -104.14938963 172.03244601 -104.60546875 180.08984375 C-104.65574219 180.775625 -104.70601563 181.46140625 -104.7578125 182.16796875 C-106.05128652 213.41830097 -86.84883722 243.16917111 -67.60546875 266.08984375 C-66.81785156 267.06179688 -66.03023437 268.03375 -65.21875 269.03515625 C-55.51636943 280.8312553 -44.48676455 291.39735848 -33.60546875 302.08984375 C-33.86650391 302.96680908 -34.12753906 303.84377441 -34.39648438 304.74731445 C-48.08055114 350.98496123 -58.77345658 398.1856194 -61.39453125 446.48828125 C-61.60521537 449.08671876 -62.04136104 451.54673521 -62.60546875 454.08984375 C-69.48211744 450.49523194 -75.47773054 445.81885911 -81.60546875 441.08984375 C-82.15654297 440.66783691 -82.70761719 440.24583008 -83.27539062 439.81103516 C-100.68244178 426.46395229 -116.94147542 411.80819 -132.48046875 396.33984375 C-133.18220215 395.6427832 -133.88393555 394.94572266 -134.60693359 394.22753906 C-139.1429363 389.67751304 -143.42455791 384.96649739 -147.60546875 380.08984375 C-148.45109375 379.125625 -149.29671875 378.16140625 -150.16796875 377.16796875 C-168.19313474 356.25415437 -183.74292106 333.51461155 -196.60546875 309.08984375 C-197.13648193 308.0855835 -197.13648193 308.0855835 -197.67822266 307.06103516 C-213.11080382 277.65150343 -224.50210994 245.29981332 -227.60546875 212.08984375 C-227.71503906 211.04828125 -227.82460937 210.00671875 -227.9375 208.93359375 C-232.03536294 164.78595038 -221.62310859 119.69487469 -194.60546875 84.08984375 C-193.97382813 83.24808594 -193.3421875 82.40632813 -192.69140625 81.5390625 C-155.84111059 33.99763168 -98.68002212 10.46180167 -40.29931641 2.79882812 C-26.87687946 1.13256627 -13.51340254 0.33673701 0 0 Z " fill="#FBC42A" transform="translate(228.60546875,0.91015625)"/>
<path d="M0 0 C66.71266625 -1.77034939 135.97760782 16.09086827 185.46191406 62.49609375 C198.65748046 75.13259776 209.43237048 89.08747809 217.85546875 105.30712891 C218.66571748 106.85174593 219.51947808 108.37337471 220.37988281 109.890625 C229.20491352 126.05411707 234.03459268 144.94594572 236.77832031 163.06640625 C236.93083252 164.03598267 236.93083252 164.03598267 237.08642578 165.02514648 C239.9067033 185.9610569 238.97763739 209.43117513 234.77832031 230.06640625 C234.58496094 231.02949707 234.39160156 231.99258789 234.19238281 232.98486328 C223.42904402 284.93292206 197.65062715 331.63816905 163.77832031 372.06640625 C163.34712891 372.58396484 162.9159375 373.10152344 162.47167969 373.63476562 C141.20513965 399.09985004 117.39110861 421.64877181 90.84375 441.52001953 C88.91337451 442.9652912 86.99020659 444.4197086 85.06738281 445.875 C74.97517961 453.45441149 64.4695607 460.3644933 53.77832031 467.06640625 C52.90256348 467.61619141 52.02680664 468.16597656 51.12451172 468.73242188 C-13.4414738 508.91940573 -92.50841421 528.01201814 -167.22167969 537.06640625 C-169.02064697 537.28683594 -169.02064697 537.28683594 -170.85595703 537.51171875 C-187.32816281 539.40779999 -203.9132677 539.26189848 -220.47167969 539.31640625 C-221.57316345 539.32194519 -222.67464722 539.32748413 -223.80950928 539.33319092 C-262.00067269 539.47340858 -262.00067269 539.47340858 -272.22167969 536.06640625 C-272.90832546 531.93201396 -273.58283773 527.79584094 -274.24804688 523.65795898 C-274.47388329 522.26261258 -274.70254511 520.86771933 -274.93457031 519.47338867 C-278.43187474 498.42053635 -279.55619144 477.51610184 -279.48242188 456.18676758 C-279.47167968 452.50390205 -279.48240168 448.82152299 -279.49511719 445.13867188 C-279.50226462 433.88231268 -279.30643506 422.69524737 -278.33105469 411.4765625 C-278.25356995 410.56184677 -278.17608521 409.64713104 -278.09625244 408.70469666 C-277.47748275 402.45011085 -277.47748275 402.45011085 -275.22167969 399.06640625 C-274.38697144 399.27003784 -274.38697144 399.27003784 -273.53540039 399.4777832 C-259.84920069 402.78424368 -246.21521621 405.46047671 -232.22167969 407.06640625 C-230.98792603 407.20997559 -230.98792603 407.20997559 -229.72924805 407.35644531 C-135.97691228 417.11739379 -42.27681245 371.0050313 29.02832031 313.50390625 C34.93526265 308.69744517 40.60384393 303.68878893 46.16894531 298.4921875 C48.41705055 296.40225734 50.69982942 294.37797886 53.02832031 292.37890625 C59.83570629 286.45944018 65.98039989 279.96766227 71.77832031 273.06640625 C72.23335937 272.53047852 72.68839844 271.99455078 73.15722656 271.44238281 C95.89267791 244.56396239 115.76125401 213.73089582 113.97363281 177.27832031 C112.95021528 165.68811678 106.3868169 154.77176935 98.01660156 146.9375 C84.94932733 136.01389728 69.34392455 131.44305611 52.77832031 129.06640625 C51.88371094 128.93492187 50.98910156 128.8034375 50.06738281 128.66796875 C19.14016698 125.05816753 -13.47333865 130.62057428 -43.06494141 139.36230469 C-43.95068848 139.61399414 -44.83643555 139.86568359 -45.74902344 140.125 C-46.51980225 140.35501709 -47.29058105 140.58503418 -48.0847168 140.82202148 C-50.78994839 141.13139391 -51.95212303 140.51842488 -54.22167969 139.06640625 C-55.91415611 137.51152953 -57.55642433 135.90111399 -59.15917969 134.25390625 C-59.99320313 133.40183594 -60.82722656 132.54976562 -61.68652344 131.671875 C-62.94142578 130.38216797 -62.94142578 130.38216797 -64.22167969 129.06640625 C-65.88692972 127.39832416 -67.55380835 125.73186737 -69.22167969 124.06640625 C-70.5306295 122.74644674 -71.83918693 121.42609808 -73.14746094 120.10546875 C-74.60964299 118.63405741 -76.07188399 117.16270465 -77.53417969 115.69140625 C-78.25541016 114.96179688 -78.97664062 114.2321875 -79.71972656 113.48046875 C-84.38568605 108.79358568 -89.19350873 104.36058059 -94.22167969 100.06640625 C-95.31585391 99.11637379 -96.40962515 98.16587693 -97.50292969 97.21484375 C-121.15395999 76.78845708 -146.15593333 58.30380778 -172.22167969 41.06640625 C-131.60280062 8.24085636 -48.79454123 1.4584742 0 0 Z " fill="#F16423" transform="translate(636.2216796875,-0.06640625)"/>
<path d="M0 0 C17.60267772 5.05802599 34.46864365 12.16454683 51 20 C51.86705566 20.41088867 52.73411133 20.82177734 53.62744141 21.24511719 C78.40879484 33.09490409 101.34845702 47.55624549 124 63 C123.42255518 66.24025285 122.53711592 67.81476014 120.15625 70.06640625 C119.57399658 70.62835693 118.99174316 71.19030762 118.3918457 71.76928711 C117.76753662 72.36104736 117.14322754 72.95280762 116.5 73.5625 C110.52590294 79.38869722 105.07046332 85.35687961 100 92 C99.38874268 92.78866455 99.38874268 92.78866455 98.76513672 93.59326172 C81.25567999 116.27073685 67.46814006 141.26295942 58.76757812 168.59667969 C58.01917669 170.93995697 57.23784726 173.27024206 56.453125 175.6015625 C48.59631767 199.60177144 45.03586353 224.90859031 43 250 C42.92942383 250.85384277 42.85884766 251.70768555 42.78613281 252.58740234 C36.95189578 327.24402808 46.48045341 421.56056705 96.82421875 480.578125 C108.89216944 494.01103241 124.23286196 506.24881863 143.04296875 507.3359375 C163.14706766 507.77533199 178.49127675 499.74404713 193 486 C196.22024249 482.4846958 199.13567279 478.80831452 202 475 C202.65355469 474.17242188 203.30710937 473.34484375 203.98046875 472.4921875 C223.6800779 446.77653005 234.58811055 414.13839434 242 383 C249.53421873 380.9730856 257.07175725 378.97200735 264.63671875 377.0625 C285.77700824 371.69261385 306.42861502 365.24263188 327 358 C328.15773926 357.59249512 329.31547852 357.18499023 330.50830078 356.76513672 C345.02987062 351.5966667 359.12193408 345.58699563 373.17529297 339.26611328 C377.29239644 337.4207115 381.42636024 335.61472924 385.5625 333.8125 C386.83468008 333.25661262 388.10682114 332.70063592 389.37890625 332.14453125 C390.24386719 331.76683594 391.10882812 331.38914062 392 331 C392.38076251 339.47258802 391.22661105 347.59141655 389.875 355.9375 C389.76362701 356.63563812 389.65225403 357.33377625 389.5375061 358.05307007 C383.22623809 397.41235114 372.27761423 436.00264809 355 472 C354.57460938 472.89315918 354.14921875 473.78631836 353.7109375 474.70654297 C342.1335144 498.88118411 327.99078361 521.26508277 311 542 C310.54044922 542.56396484 310.08089844 543.12792969 309.60742188 543.70898438 C298.38352612 557.39932732 286.05065207 570.19651898 272 581 C271.01 581.79535156 270.02 582.59070313 269 583.41015625 C228.02576409 616.11582059 176.59244034 632.03194335 124.31567383 626.22802734 C100.54909165 623.10975515 78.06967695 615.24654218 57 604 C55.83855469 603.38382813 54.67710937 602.76765625 53.48046875 602.1328125 C38.82662028 594.0606354 25.46216025 584.12845636 13 573 C12.4642334 572.52594727 11.9284668 572.05189453 11.37646484 571.56347656 C-0.93084958 560.63256604 -11.77372265 548.75401335 -21.73583984 535.65820312 C-22.9137633 534.11311696 -24.10670362 532.57951114 -25.30078125 531.046875 C-82.30638861 456.92946011 -108.19199744 352.93953335 -97.54263306 249.02482605 C-97.05302211 245.34629439 -96.52909324 241.67302691 -96 238 C-95.90052063 237.29415771 -95.80104126 236.58831543 -95.69854736 235.86108398 C-83.92362098 152.51312268 -53.03871844 66.07882416 0 0 Z " fill="#00A550" transform="translate(291,168)"/>
<path d="M0 0 C228.62082515 0 228.62082515 0 272 32 C272.84820313 32.62519531 273.69640625 33.25039062 274.5703125 33.89453125 C298.27160444 52.13486721 312.03792185 77.12906764 317.3125 106.3125 C321.8320798 142.65551279 316.63425005 179.2426245 294.5625 209.3125 C284.66698134 221.94831613 273.88358778 232.62315616 260.5625 241.5625 C259.78076416 242.08763184 258.99902832 242.61276367 258.19360352 243.15380859 C254.79652987 245.37875374 252.02388493 247.19275815 248 248 C252.21435393 255.93821043 256.75377569 263.61981747 261.5 271.25 C262.92833469 273.55651814 264.35465511 275.86428051 265.78125 278.171875 C266.13832031 278.74881104 266.49539063 279.32574707 266.86328125 279.92016602 C270.27118188 285.42924261 273.63898385 290.96224274 277 296.5 C281.90821831 304.58071405 286.85038333 312.63977861 291.8125 320.6875 C297.77348058 330.35676501 303.68566516 340.05432584 309.57192993 349.76913452 C315.32863173 359.26835629 321.13547348 368.73561114 326.96728516 378.18896484 C332.70165453 387.49333657 338.37378958 396.83467453 344.02905273 406.18725586 C347.07669572 411.22240943 350.13601529 416.24721275 353.29296875 421.21484375 C353.76943848 421.96491699 354.2459082 422.71499023 354.73681641 423.48779297 C355.58825208 424.82029763 356.44552267 426.14910185 357.31005859 427.47314453 C360 431.67461094 360 431.67461094 360 435 C349.48903614 435.0466881 338.97809764 435.08205213 328.46705055 435.10362434 C323.5844413 435.1139867 318.70190387 435.12800491 313.81933594 435.15087891 C309.09251593 435.17288039 304.36576427 435.18462508 299.63889694 435.18975449 C297.85072125 435.19340194 296.06254857 435.20052147 294.27440262 435.21146011 C268.22248013 435.36424297 244.75182389 432.89304894 225 414 C216.78562413 405.15823841 211.44368537 394.13696313 205.67578125 383.640625 C202.22198477 377.36365379 198.63434247 371.17373913 195 365 C190.23469811 356.88641326 185.5759272 348.72185022 181 340.5 C174.6830999 329.15579691 168.18269206 317.92759804 161.60009766 306.73583984 C160.07630269 304.13046199 158.5717459 301.51507533 157.07421875 298.89453125 C156.62530273 298.11464844 156.17638672 297.33476562 155.71386719 296.53125 C154.89718481 295.11158485 154.08608413 293.68868485 153.28222656 292.26171875 C149.23466314 285.26752915 145.69948323 282.29977853 138 279 C128.1 278.67 118.2 278.34 108 278 C108 329.81 108 381.62 108 435 C72.36 435 36.72 435 0 435 C0 291.45 0 147.9 0 0 Z M108 84 C108 122.28 108 160.56 108 200 C155.95373561 202.04172376 155.95373561 202.04172376 197.625 182.125 C209.67211285 169.37300289 213.79750131 151.71135427 213.34765625 134.578125 C212.29764311 123.77124815 209.52027254 113.83603684 203 105 C202.56042969 104.36835938 202.12085937 103.73671875 201.66796875 103.0859375 C191.7900825 90.16213243 175.06910262 86.73983684 160 84 C142.84 84 125.68 84 108 84 Z " fill="#EC1C23" transform="translate(2900,72)"/>
<path d="M0 0 C1.03535889 0.00054382 2.07071777 0.00108765 3.13745117 0.00164795 C19.80410078 0.04182017 35.90062013 0.86411829 52.25 4.375 C53.25272949 4.58930664 54.25545898 4.80361328 55.28857422 5.02441406 C75.27673241 9.46479068 94.25139746 16.64473018 112.25 26.375 C112.8486084 26.69436523 113.4472168 27.01373047 114.06396484 27.34277344 C140.18808327 41.36962361 164.18371612 61.87641426 182.25 85.375 C182.67635742 85.92494629 183.10271484 86.47489258 183.54199219 87.04150391 C213.85803787 126.36069491 227.76514258 173.14298692 227.5625 222.5 C227.56034485 223.44687683 227.5581897 224.39375366 227.55596924 225.36932373 C227.50420156 239.556959 227.10730345 253.43248873 224.25 267.375 C224.05132324 268.36483887 223.85264648 269.35467773 223.64794922 270.37451172 C215.27154021 310.88872368 196.94533961 346.56030786 168.25 376.375 C167.64881348 377.00341797 167.04762695 377.63183594 166.42822266 378.27929688 C157.60273726 387.45797939 148.6104789 395.95608452 138.25 403.375 C137.59370605 403.84856934 136.93741211 404.32213867 136.26123047 404.81005859 C103.63927602 428.09393066 66.91465395 440.87315594 27.25 445.375 C25.62771484 445.57222656 25.62771484 445.57222656 23.97265625 445.7734375 C-36.41855773 451.77202788 -97.9727263 435.05129026 -145.16162109 396.70214844 C-150.22266827 392.47345916 -155.00029102 387.94675009 -159.75 383.375 C-160.32927246 382.82295898 -160.90854492 382.27091797 -161.50537109 381.70214844 C-201.3612684 343.5772229 -224.5049569 290.57389014 -225.97851562 235.44869995 C-227.1513054 180.3825551 -214.93410658 127.9248773 -179.75 84.375 C-179.26418457 83.77349121 -178.77836914 83.17198242 -178.27783203 82.55224609 C-167.70357866 69.59675424 -156.06676867 57.52881147 -142.75 47.375 C-142.19231934 46.94622559 -141.63463867 46.51745117 -141.06005859 46.07568359 C-99.99874441 14.64699918 -51.46059158 -0.10176985 0 0 Z M-84.75 120.375 C-85.41773438 120.97699219 -86.08546875 121.57898438 -86.7734375 122.19921875 C-113.23797512 147.09748782 -125.521383 184.37172653 -126.71484375 219.8515625 C-126.98530075 235.64055727 -125.10629448 251.20864145 -120.75 266.375 C-120.32074219 267.91414063 -120.32074219 267.91414063 -119.8828125 269.484375 C-110.33493554 300.74733496 -87.31981034 330.4446289 -58.71582031 346.51806641 C-28.65839275 362.32181934 5.81927205 365.97136316 38.4375 356.1875 C56.1007953 350.49805034 71.55599857 340.59603072 84.83154297 327.74658203 C86.17974836 326.44293007 87.54454089 325.15649675 88.91015625 323.87109375 C107.81888588 305.66376985 119.22971285 282.67336511 125.25 257.375 C125.41661133 256.70114258 125.58322266 256.02728516 125.75488281 255.33300781 C130.67269271 234.67413351 130.31666188 209.95800494 125.25 189.375 C125.07839355 188.64216797 124.90678711 187.90933594 124.72998047 187.15429688 C116.42510456 152.27233374 94.50510041 121.03756105 64.171875 101.73046875 C15.28866154 71.72954711 -44.07641545 82.54989124 -84.75 120.375 Z " fill="#EC1C23" transform="translate(1603.75,66.625)"/>
<path d="M0 0 C35.64 0 71.28 0 108 0 C113.75485025 13.8116406 113.75485025 13.8116406 116.21484375 20.13671875 C116.50261688 20.873564 116.79039001 21.61040924 117.08688354 22.36958313 C118.03864114 24.80828675 118.98817326 27.24784917 119.9375 29.6875 C120.63044911 31.4654961 121.32340169 33.24349085 122.01635742 35.02148438 C128.93492909 52.78685348 135.79305888 70.57559798 142.65209961 88.36401367 C148.5847718 103.74915905 154.53346878 119.12795554 160.5 134.5 C167.82479716 153.37270915 175.12034054 172.25658973 182.40576172 191.14453125 C188.75433659 207.60265365 195.11758354 224.05497253 201.5 240.5 C208.82463863 259.37277088 216.12034039 278.25658933 223.40576172 297.14453125 C229.3722921 312.61223688 235.34995911 328.07552561 241.34793091 343.53106689 C243.65267114 349.47048461 245.9556859 355.41057158 248.25865173 361.35067749 C250.23016206 366.43584566 252.20202597 371.52087571 254.1749897 376.60548019 C256.72477444 383.17682611 259.27221412 389.74907356 261.81610298 396.32270432 C263.0541903 399.52182943 264.29332114 402.72054051 265.53515625 405.91821289 C266.91303714 409.46780489 268.28704067 413.01887489 269.66015625 416.5703125 C270.07068741 417.62529938 270.48121857 418.68028625 270.90419006 419.76724243 C272.84616195 424.80171731 274.63393079 429.77827481 276 435 C267.65373301 435.02335576 259.30748009 435.04103185 250.96118832 435.05181217 C247.08405831 435.05699085 243.20695096 435.06399523 239.32983398 435.07543945 C235.57561082 435.08644929 231.82140919 435.09231439 228.0671711 435.09487724 C226.64773788 435.09669938 225.22830559 435.1002558 223.80888176 435.10573006 C180.91907641 435.2642903 180.91907641 435.2642903 164.8125 420.4375 C149.24682198 403.41944634 143.53364896 378.9176144 136.375 357.5 C136.10498169 356.69239227 135.83496338 355.88478455 135.5567627 355.05270386 C134.79123153 352.7553199 134.03102374 350.45626473 133.2734375 348.15625 C133.04270538 347.46161148 132.81197327 346.76697296 132.57424927 346.05128479 C131 341.23376549 131 341.23376549 131 339 C80.51 339.33 30.02 339.66 -22 340 C-27.61 356.5 -33.22 373 -39 390 C-53.20799434 421.96798727 -53.20799434 421.96798727 -70.9375 429.8125 C-85.6166307 435.4583195 -101.27600858 435.15731526 -116.8046875 435.09765625 C-118.26441397 435.09578479 -119.72414108 435.09436434 -121.18386841 435.09336853 C-124.97472961 435.08960057 -128.7655508 435.07982119 -132.55639648 435.06866455 C-136.44514424 435.0583254 -140.33389863 435.05384448 -144.22265625 435.04882812 C-151.81512215 435.03819209 -159.40755541 435.02118701 -167 435 C-166.4606211 431.35061967 -165.7898824 428.03295929 -164.44384766 424.59838867 C-164.12407455 423.77396774 -163.80430145 422.94954681 -163.47483826 422.10014343 C-163.12478226 421.21502579 -162.77472626 420.32990814 -162.4140625 419.41796875 C-162.04583878 418.47319168 -161.67761505 417.52841461 -161.29823303 416.55500793 C-160.07910136 413.43041381 -158.85196706 410.30902467 -157.625 407.1875 C-156.76085649 404.97615291 -155.89734163 402.76456006 -155.03442383 400.55273438 C-153.24270909 395.96175583 -151.44829773 391.3718455 -149.65185547 386.78271484 C-146.02841756 377.52153958 -142.43353604 368.24933027 -138.84075928 358.97622681 C-137.67455151 355.96658372 -136.50752443 352.95725939 -135.34033203 349.94799805 C-129.20959711 334.13866521 -123.1026177 318.32020412 -117 302.5 C-110.11864838 284.66103439 -103.22739052 266.82599405 -96.3125 249 C-95.92494537 248.000896 -95.53739075 247.00179199 -95.13809204 245.97241211 C-92.04075399 237.98812706 -88.94222311 230.00430505 -85.84362793 222.02050781 C-83.12434775 215.01389329 -80.40556411 208.00708636 -77.6875 201 C-77.30018707 200.00154053 -76.91287415 199.00308105 -76.51382446 197.97436523 C-69.52041844 179.94336142 -62.55504804 161.90159205 -55.59506226 143.85766602 C-49.24621614 127.39880968 -42.88266228 110.94577126 -36.5 94.5 C-29.35547457 76.09085425 -22.23408177 57.67285477 -15.125 39.25 C-14.6518335 38.02385986 -14.17866699 36.79771973 -13.69116211 35.53442383 C-12.33821816 32.02821954 -10.98545214 28.52194669 -9.6328125 25.015625 C-9.04024155 23.47959625 -9.04024155 23.47959625 -8.43569946 21.91253662 C-5.61927517 14.61008689 -2.80964271 7.30507104 0 0 Z M54 113 C53.67314209 113.99104736 53.34628418 114.98209473 53.00952148 116.00317383 C51.76215769 119.78226049 50.51042986 123.55989099 49.25756836 127.3371582 C48.72225053 128.95299252 48.18802105 130.56918794 47.6550293 132.18579102 C44.79721411 140.85116251 41.86355673 149.47238212 38.66796875 158.01953125 C34.56280994 169.01583911 30.83534058 180.1366798 27.09170532 191.26019287 C20.42632015 211.06291864 13.68417083 230.83345975 6.65771484 250.51123047 C6.27946312 251.57543213 6.27946312 251.57543213 5.89356995 252.66113281 C5.22898116 254.5300795 4.56057874 256.39766889 3.8918457 258.26513672 C2.89665535 260.83747405 2.89665535 260.83747405 3 263 C36.66 263 70.32 263 105 263 C103.30879197 255.35695303 103.30879197 255.35695303 101.08325195 247.96923828 C100.71082367 246.86582092 100.33839539 245.76240356 99.9546814 244.62554932 C99.55326935 243.45232117 99.1518573 242.27909302 98.73828125 241.0703125 C98.31559967 239.82328552 97.89291809 238.57625854 97.45742798 237.29144287 C96.31768757 233.93003642 95.17186049 230.57073538 94.02463913 227.21187592 C93.06825687 224.4092619 92.11553764 221.60540808 91.16270924 218.80158424 C85.20516828 201.27405805 79.16880546 183.77515099 73.03625488 166.30801392 C66.8215236 148.60556861 60.86812054 130.82004034 55 113 C54.67 113 54.34 113 54 113 Z " fill="#EC1C23" transform="translate(2580,72)"/>
<path d="M0 0 C11.345027 -0.09316128 22.68996123 -0.16399729 34.03529453 -0.20724869 C39.30483691 -0.22801947 44.57411533 -0.2561425 49.84350586 -0.30175781 C54.93991077 -0.34559366 60.03606368 -0.36921587 65.13264275 -0.37950897 C67.06567279 -0.38683322 68.99869088 -0.40113327 70.93161201 -0.42292023 C90.72284522 -0.63688752 108.72337947 2.33811892 123.71166992 16.50292969 C134.09652352 26.84517352 140.52691378 40.06755425 147.3359375 52.87353516 C149.03753725 56.07052553 150.7515957 59.26055861 152.46875 62.44921875 C159.7549895 75.99248441 166.96045428 89.57790745 174.14907837 103.17315674 C181.71329739 117.47729272 189.33179072 131.7512855 197 146 C197.62406738 147.16031738 198.24813477 148.32063477 198.89111328 149.51611328 C200.71665642 152.90788677 202.54516042 156.29804281 204.375 159.6875 C204.92905518 160.71633301 205.48311035 161.74516602 206.05395508 162.80517578 C206.55950928 163.73958496 207.06506348 164.67399414 207.5859375 165.63671875 C208.0298584 166.45873779 208.4737793 167.28075684 208.93115234 168.12768555 C209.86277706 169.95061837 209.86277706 169.95061837 211 171 C211.36125977 170.2972998 211.72251953 169.59459961 212.09472656 168.87060547 C218.79172548 155.8594746 225.54375481 142.89351554 232.59863281 130.07177734 C236.15494735 123.59277167 239.59974891 117.06212041 243 110.5 C247.38910315 102.03030208 251.9016044 93.63841237 256.49560547 85.27832031 C260.12866133 78.64754887 263.64664394 71.96303761 267.125 65.25 C274.95357304 50.19612199 282.6513909 35.49741666 293 22 C293.55816406 21.23300781 294.11632813 20.46601562 294.69140625 19.67578125 C303.92746525 7.89344033 318.55294188 1.99830363 333 0 C335.95110357 -0.13476122 338.89734057 -0.12662545 341.85107422 -0.11352539 C343.15449013 -0.11374443 343.15449013 -0.11374443 344.48423767 -0.1139679 C347.34108015 -0.11327421 350.19785649 -0.10550735 353.0546875 -0.09765625 C355.04151372 -0.09579014 357.02834039 -0.09436715 359.01516724 -0.09336853 C364.23312663 -0.08955857 369.45105799 -0.0797413 374.66900635 -0.06866455 C379.99808371 -0.05841769 385.32716562 -0.0538639 390.65625 -0.04882812 C401.10417895 -0.03811764 411.55208714 -0.02105953 422 0 C420.71832726 2.41147861 419.43572649 4.82245582 418.15258789 7.2331543 C417.7914817 7.91280998 417.43037552 8.59246567 417.05832672 9.29271698 C414.62305992 13.8656908 412.10971484 18.37327392 409.4375 22.8125 C405.14686036 30.02756725 400.9370823 37.28687598 396.75 44.5625 C391.85865853 53.05662691 386.94612655 61.53765644 382 70 C374.61578129 82.63739334 367.30509833 95.31675355 360 108 C352.12337411 121.67554314 344.22879908 135.33960958 336.26708984 148.96582031 C329.46412377 160.61659185 322.73357814 172.30903744 316 184 C308.1300908 197.66388151 300.24444309 211.31761509 292.28686523 224.93066406 C289.17669787 230.25533401 286.07898645 235.58692524 283 240.9296875 C282.49762817 241.80140594 282.49762817 241.80140594 281.98510742 242.69073486 C280.37126114 245.49211183 278.75903111 248.29440788 277.1484375 251.09765625 C276.56320312 252.11472656 275.97796875 253.13179687 275.375 254.1796875 C274.86710937 255.06382324 274.35921875 255.94795898 273.8359375 256.85888672 C272 260 272 260 270.53538322 261.92507172 C265.07243675 269.63058986 265.14977077 277.1159017 265.22705078 286.18994141 C265.21886759 287.80717436 265.20805806 289.42439582 265.19483948 291.04159546 C265.16653987 295.40474114 265.17471001 299.76712775 265.18970728 304.13031054 C265.19912011 308.70010169 265.17460646 313.26971168 265.15377808 317.83944702 C265.1195027 326.48068018 265.11549071 335.12164845 265.12250316 343.762936 C265.13022323 355.44847094 265.09088671 367.13384297 265.05426407 378.81930733 C264.99785166 397.2129741 265.00404529 415.60607451 265 434 C229.36 434 193.72 434 157 434 C157.09023437 422.511875 157.18046875 411.02375 157.2734375 399.1875 C157.29939555 391.86839826 157.32176248 384.5495705 157.328125 377.23046875 C157.33886079 365.63691011 157.36340383 354.044672 157.48339844 342.45166016 C157.5707662 334.00426762 157.60746224 325.55833729 157.58627188 317.11049557 C157.57676793 312.64725012 157.59061576 308.18715142 157.66541672 303.72445679 C158.00655683 282.24271069 156.94390869 267.05639492 143.62045383 249.21361732 C141.43495764 246.22812515 139.66647535 243.11993186 137.87890625 239.8828125 C137.32452881 238.92101074 136.77015137 237.95920898 136.19897461 236.96826172 C135.65893799 236.02998535 135.11890137 235.09170898 134.5625 234.125 C133.94963135 233.06168457 133.3367627 231.99836914 132.70532227 230.90283203 C130.17078589 226.50541626 127.63769095 222.10717079 125.10449219 217.70898438 C117.85966952 205.1323608 110.5926719 192.56963043 103.26928711 180.03857422 C98.34948718 171.61430661 93.47477862 163.16446104 88.60546875 154.7109375 C84.42650842 147.46048459 80.22252011 140.22516137 76 133 C67.97718322 119.26953183 60.04141672 105.48921914 52.10449219 91.70898438 C44.86261849 79.13748005 37.59911437 66.57954248 30.27807617 54.05395508 C25.27013532 45.4795072 20.3078401 36.87911092 15.35717773 28.27148438 C12.54201134 23.38227887 9.71584536 18.50143734 6.83203125 13.65234375 C6.35926758 12.85691162 5.88650391 12.06147949 5.39941406 11.24194336 C4.53427489 9.79114478 3.66537628 8.34257863 2.79199219 6.89672852 C0 2.21791331 0 2.21791331 0 0 Z " fill="#EC1C23" transform="translate(982,73)"/>
<path d="M0 0 C114.51 0 229.02 0 347 0 C347 28.71 347 57.42 347 87 C307.73 87 268.46 87 228 87 C228 201.51 228 316.02 228 434 C142.78384798 434 142.78384798 434 130.2265625 422.35546875 C120.19331371 411.9623777 119.84633691 398.99655473 119.87974548 385.35145569 C119.87889106 384.07548993 119.87803663 382.79952417 119.87715632 381.48489279 C119.87492605 377.95480735 119.87891252 374.4247524 119.88393438 370.89467084 C119.8882598 367.08357902 119.88679097 363.27248886 119.8860321 359.46139526 C119.8855082 352.86224524 119.88864111 346.26310513 119.89426994 339.6639576 C119.90240295 330.12274207 119.90500201 320.58153132 119.90625793 311.0403127 C119.90844562 295.55966864 119.91509803 280.07902986 119.92456055 264.59838867 C119.93374199 249.56193061 119.94081924 234.52547397 119.94506836 219.48901367 C119.94533108 218.56189711 119.94559381 217.63478055 119.94586449 216.67956955 C119.94716955 212.02841784 119.94843325 207.37726612 119.94967639 202.72611439 C119.96004018 164.15073824 119.97847375 125.57537185 120 87 C80.4 87 40.8 87 0 87 C0 58.29 0 29.58 0 0 Z " fill="#EC1C23" transform="translate(3262,73)"/>
<path d="M0 0 C66.43479644 0 66.43479644 0 77.53125 10.28515625 C84.4608626 18.37584756 84.55246416 27.86801586 84 38 C82.71527107 46.06196869 78.05025034 52.8513004 71.6484375 57.828125 C69.46732788 59.29167087 67.26062247 60.66377936 65 62 C64.01 62.66 63.02 63.32 62 64 C62.97839844 64.41958984 62.97839844 64.41958984 63.9765625 64.84765625 C71.02511376 68.08084127 76.12394301 71.42912574 79.13671875 78.76953125 C81.87284591 89.00834193 80.69442143 100.29873001 75.59375 109.55078125 C68.2709455 120.9322156 58.84194127 126.34655395 46 130 C25.73203024 134.05359395 4.66935466 131 -16 131 C-10.72 87.77 -5.44 44.54 0 0 Z M22 20 C21.62793141 22.30006035 21.31528441 24.60977578 21.02734375 26.921875 C20.93997452 27.61887512 20.85260529 28.31587524 20.7625885 29.03399658 C20.57817756 30.5132928 20.39590271 31.99285659 20.21557617 33.47265625 C19.94027318 35.72728863 19.65720709 37.98084379 19.37304688 40.234375 C18.2670507 48.58916742 18.2670507 48.58916742 18 57 C21.2914911 57.08857863 24.58266805 57.1409104 27.875 57.1875 C28.7928125 57.21263672 29.710625 57.23777344 30.65625 57.26367188 C39.58078326 57.35794511 47.96776677 56.05563826 54.59375 49.6484375 C59.28548136 44.14868574 59.34414461 38.83477518 59.3984375 31.8671875 C58.85395543 27.94905179 57.04416388 25.48381183 54.8125 22.3125 C48.87816924 18.015226 40.52266283 18.72532591 33.5625 18.8125 C32.55767578 18.81314453 31.55285156 18.81378906 30.51757812 18.81445312 C25.9186548 18.41478585 25.9186548 18.41478585 22 20 Z M16 74 C14.33356286 82.3567865 13.27004104 90.71657589 12.375 99.1875 C12.2409375 100.42564453 12.106875 101.66378906 11.96875 102.93945312 C11.64228306 105.95927231 11.31943714 108.97943053 11 112 C15.49987562 112.08767743 19.999529 112.14062009 24.5 112.1875 C25.7684375 112.21263672 27.036875 112.23777344 28.34375 112.26367188 C36.69059064 112.32888157 43.19934439 112.20944251 49.8125 106.625 C55.54223385 99.74931938 56.7523849 93.80568999 56 85 C54.25894517 79.7768355 51.78084962 77.63434571 47 75 C43.55991033 73.85314773 40.31156319 73.88532282 36.703125 73.90234375 C34.89521484 73.90717773 34.89521484 73.90717773 33.05078125 73.91210938 C31.16939453 73.92467773 31.16939453 73.92467773 29.25 73.9375 C27.98027344 73.94201172 26.71054688 73.94652344 25.40234375 73.95117188 C22.26818164 73.96295444 19.13411459 73.97940584 16 74 Z " fill="#00A550" transform="translate(1358,581)"/>
<path d="M0 0 C1.51407188 -0.01925285 1.51407188 -0.01925285 3.05873108 -0.03889465 C4.16268723 -0.04628159 5.26664337 -0.05366852 6.40405273 -0.0612793 C7.54108139 -0.06935104 8.67811005 -0.07742279 9.84959412 -0.08573914 C12.27162134 -0.09961346 14.69366839 -0.11032052 17.11572266 -0.11816406 C20.77017418 -0.13518381 24.42367466 -0.17901564 28.07788086 -0.22338867 C47.57271973 -0.3536973 65.31335985 0.85097792 80.46264648 14.55200195 C93.81573028 28.62917642 95.8949843 45.33177488 95.57983398 63.92700195 C94.91542867 82.22285741 87.27604061 100.17610783 74.27514648 113.17700195 C68.16632465 118.71507255 61.64151362 122.76927245 54.15014648 126.11450195 C53.51778076 126.39712891 52.88541504 126.67975586 52.23388672 126.97094727 C42.6319046 130.98459795 33.13507234 131.46131815 22.82983398 131.37231445 C21.5788089 131.36948456 20.32778381 131.36665466 19.03884888 131.36373901 C15.74763085 131.35450363 12.45661687 131.33660313 9.16546631 131.31433105 C5.79319731 131.29370056 2.42089819 131.2847009 -0.95141602 131.2746582 C-7.54264021 131.25270588 -14.13373021 131.21930994 -20.72485352 131.17700195 C-20.12121744 116.93191813 -18.35094668 102.85366325 -16.59985352 88.7121582 C-16.28950485 86.18154903 -15.97945124 83.65090365 -15.66967773 81.120224 C-15.02381122 75.85271632 -14.3746897 70.58562457 -13.72290039 65.31884766 C-12.9692717 59.22870781 -12.22226054 53.13778246 -11.47858238 47.04642016 C-10.76011509 41.16299679 -10.03679715 35.28017756 -9.31134033 29.39761162 C-9.00387888 26.90057127 -8.69768415 24.40337463 -8.39276123 21.90602303 C-7.96858109 18.43730453 -7.53889864 14.96931262 -7.10766602 11.50146484 C-6.981922 10.46421265 -6.85617798 9.42696045 -6.72662354 8.35827637 C-6.55003204 6.95207787 -6.55003204 6.95207787 -6.36987305 5.51747131 C-6.26885284 4.698499 -6.16783264 3.87952669 -6.06375122 3.03573704 C-5.39229776 -0.64694978 -3.33781237 0.03687534 0 0 Z M17.27514648 20.17700195 C15.1447676 29.73376186 14.05365546 39.38034632 12.89233398 49.09106445 C12.67132757 50.91527327 12.44997802 52.73944055 12.228302 54.56356812 C11.64951754 59.33388159 11.07535673 64.10474027 10.50219727 68.87573242 C9.91501324 73.75644515 9.32340251 78.6366211 8.73217773 83.5168457 C7.57553095 93.0697145 6.42377407 102.62316586 5.27514648 112.17700195 C9.13321311 112.19526679 12.99126847 112.20629818 16.84936523 112.21606445 C18.48077454 112.22391968 18.48077454 112.22391968 20.1451416 112.23193359 C34.30160898 112.25881126 45.55651165 110.50658624 56.52514648 100.67700195 C68.59335328 87.69190881 71.08580237 70.49192297 70.61108398 53.4777832 C70.07947985 42.80988331 67.29342893 34.96971975 59.65795898 27.20825195 C53.64609643 22.08338551 47.47531442 20.04512349 39.63842773 20.0793457 C38.33969727 20.08256836 37.0409668 20.08579102 35.70288086 20.08911133 C34.3311354 20.09746664 32.95939061 20.10593158 31.58764648 20.11450195 C30.20418453 20.1195186 28.82072085 20.12408122 27.43725586 20.12817383 C24.04984254 20.13997666 20.66251615 20.15644177 17.27514648 20.17700195 Z " fill="#00A550" transform="translate(2029.724853515625,580.822998046875)"/>
<path d="M0 0 C7.92 0 15.84 0 24 0 C23.38402075 11.1086257 22.24873478 22.07649142 20.84326172 33.11157227 C20.49485959 35.85294694 20.15524736 38.59531941 19.81640625 41.33789062 C19.59686711 43.086002 19.3768341 44.83405143 19.15625 46.58203125 C19.05517944 47.39960403 18.95410889 48.21717682 18.84997559 49.05952454 C18.11521179 54.76957642 18.11521179 54.76957642 17 57 C34.82 57 52.64 57 71 57 C73.31 38.19 75.62 19.38 78 0 C86.25 0 94.5 0 103 0 C101.52802875 15.45253934 99.7024358 30.83695271 97.7421875 46.234375 C97.4309357 48.69440898 97.11991494 51.15447219 96.80911255 53.61456299 C95.99930143 60.01955879 95.18639952 66.42415844 94.37280273 72.82867432 C93.53959794 79.39205203 92.70938665 85.95580835 91.87890625 92.51953125 C90.25549597 105.34672209 88.62853552 118.17345885 87 131 C78.75 131 70.5 131 62 131 C63.70770074 111.90480084 66.38505648 92.99274767 69 74 C51.18 74 33.36 74 15 74 C14.67 78.62 14.34 83.24 14 88 C13.64130757 91.42897376 13.26621871 94.84521122 12.84375 98.265625 C12.68295959 99.59385284 12.68295959 99.59385284 12.5189209 100.94891357 C12.29541576 102.78727795 12.07019654 104.62543475 11.84326172 106.46337891 C11.49554695 109.28615012 11.1556901 112.10979807 10.81640625 114.93359375 C10.59681797 116.73182753 10.37678292 118.53000682 10.15625 120.328125 C10.05517944 121.17070862 9.95410889 122.01329224 9.84997559 122.88140869 C9.11493753 128.77012494 9.11493753 128.77012494 8 131 C0.08 131 -7.84 131 -16 131 C-15.2786398 117.1398268 -13.57841873 103.43744311 -11.875 89.66796875 C-11.56468659 87.13832165 -11.25463232 84.60864275 -10.94482422 82.07893372 C-10.29856576 76.80969553 -9.64946881 71.54081825 -8.99804688 66.2722168 C-8.24516016 60.18259691 -7.49799222 54.09229507 -6.75372887 48.0016157 C-6.03471574 42.11879941 -5.3115217 36.23650286 -4.58648682 30.35442543 C-4.27920665 27.85818933 -3.97301088 25.36181951 -3.66790771 22.86531639 C-3.24314664 19.39437377 -2.81364192 15.9240513 -2.3828125 12.45385742 C-2.25706848 11.41862946 -2.13132446 10.38340149 -2.00177002 9.31680298 C-1.82517853 7.90637474 -1.82517853 7.90637474 -1.64501953 6.467453 C-1.54399933 5.64810367 -1.44297913 4.82875433 -1.33889771 3.98457623 C-1 2 -1 2 0 0 Z " fill="#00A550" transform="translate(2721,581)"/>
<path d="M0 0 C4.86665533 2.4440946 7.55666309 6.5891296 9.765625 11.38671875 C10.63807836 14.05860716 11.22212901 16.61983007 11.765625 19.38671875 C12.1059375 18.81824219 12.44625 18.24976563 12.796875 17.6640625 C18.4585411 8.64454655 25.13353912 1.91389528 35.765625 -0.61328125 C43.46193572 -1.51164724 50.41939039 -1.42194833 56.765625 3.38671875 C62.62160534 8.7221675 64.48047077 15.48715516 64.9354248 23.304245 C64.93575468 31.5569947 64.24092904 39.59472301 63.234375 47.78125 C63.07677163 49.10780629 62.91984305 50.43444289 62.7635498 51.76115417 C62.35594238 55.20595441 61.93935165 58.64960666 61.52069092 62.09307861 C61.09285266 65.62584118 60.67378097 69.1596431 60.25390625 72.69335938 C59.43291441 79.59217444 58.60158853 86.489702 57.765625 93.38671875 C49.845625 93.38671875 41.925625 93.38671875 33.765625 93.38671875 C34.0915564 90.6480249 34.0915564 90.6480249 34.42407227 87.85400391 C35.14340207 81.78816878 35.85276225 75.72123111 36.55549717 69.65345192 C36.98148315 65.97840065 37.41132645 62.30389053 37.8503418 58.63037109 C38.2747025 55.07822332 38.68846444 51.52497985 39.0952282 47.9707756 C39.32684992 45.97052639 39.56913459 43.97152107 39.81166077 41.9725647 C41.01578268 31.64676917 41.01578268 31.64676917 39.765625 21.38671875 C37.84836506 19.05519567 37.84836506 19.05519567 34.515625 19.01171875 C28.78655088 19.58462616 25.5409513 22.37642349 21.703125 26.44921875 C11.04630402 39.5674577 11.05048949 57.51838543 9.140625 73.57421875 C8.90915762 75.49938547 8.67738929 77.42451603 8.4453125 79.34960938 C7.88138676 84.02817896 7.32364712 88.70742641 6.765625 93.38671875 C-0.824375 93.38671875 -8.414375 93.38671875 -16.234375 93.38671875 C-15.76979613 84.93885925 -15.08410153 76.58775091 -14.04296875 68.19140625 C-13.93296539 67.30326233 -13.82296204 66.41511841 -13.70962524 65.50006104 C-13.25114311 61.82850552 -12.78693235 58.15773086 -12.31567383 54.48779297 C-9.36961321 37.32158341 -9.36961321 37.32158341 -11.234375 20.38671875 C-14.44927618 18.77926816 -16.6644821 18.98366633 -20.234375 19.38671875 C-27.12768039 22.7470391 -31.07130259 28.60001669 -34.234375 35.38671875 C-34.55317627 36.05735352 -34.87197754 36.72798828 -35.20043945 37.41894531 C-39.26568154 47.06995052 -39.83041611 57.45281512 -40.921875 67.76171875 C-41.23836595 70.63255445 -41.55865375 73.50293999 -41.88032532 76.37319946 C-42.07788201 78.14797916 -42.27174371 79.9231753 -42.46134949 81.69882202 C-42.54846695 82.50381134 -42.63558441 83.30880066 -42.7253418 84.13818359 C-42.79988083 84.84002777 -42.87441986 85.54187195 -42.95121765 86.26498413 C-43.27030171 88.65592223 -43.76131623 91.02142489 -44.234375 93.38671875 C-51.824375 93.38671875 -59.414375 93.38671875 -67.234375 93.38671875 C-65.60939672 74.71732541 -63.28031416 56.1562422 -60.92498779 37.56829834 C-60.39297904 33.36418427 -59.86463249 29.15960997 -59.3359375 24.95507812 C-58.30557868 16.76518154 -57.27129545 8.57578715 -56.234375 0.38671875 C-53.64991727 0.27853215 -51.07000148 0.19934638 -48.484375 0.13671875 C-47.75476562 0.10320313 -47.02515625 0.0696875 -46.2734375 0.03515625 C-42.68740531 -0.03004434 -40.6697877 0.06080282 -37.75683594 2.24121094 C-35.9234316 4.82491159 -35.64983463 6.49298585 -35.484375 9.63671875 C-35.42765625 10.52875 -35.3709375 11.42078125 -35.3125 12.33984375 C-35.28671875 13.0153125 -35.2609375 13.69078125 -35.234375 14.38671875 C-34.84507812 13.87882813 -34.45578125 13.3709375 -34.0546875 12.84765625 C-25.50475091 2.32768819 -13.73132151 -3.76891167 0 0 Z " fill="#00A550" transform="translate(2999.234375,618.61328125)"/>
<path d="M0 0 C6.67539564 6.38655641 8.91431285 14.37291287 9.125 23.375 C6.37860127 23.98664338 3.631899 24.56465467 0.875 25.125 C0.09769531 25.30160156 -0.67960937 25.47820313 -1.48046875 25.66015625 C-3.66536268 26.08966531 -5.64787147 26.41330094 -7.875 26.375 C-11.03144744 24.20811406 -12.33762495 21.80308406 -13.75 18.3125 C-15.18120197 15.33915018 -15.88183726 14.36987205 -18.625 12.3125 C-22.64979032 11.15150279 -25.91823856 11.10346589 -29.875 12.375 C-34.52133825 15.26800306 -36.80699486 18.16084878 -38.40234375 23.28125 C-40.13351128 30.94989293 -38.55172992 37.53757242 -34.875 44.375 C-31.09960771 49.87508403 -26.85209643 55.02377321 -22.640625 60.19189453 C-20.11724482 63.31192572 -17.68061478 66.49503677 -15.25 69.6875 C-12.49641008 73.28220356 -9.7147063 76.84785349 -6.875 80.375 C-3.52422048 74.41805862 -1.51049374 68.37300058 0.3737793 61.8359375 C1.92226463 56.57773537 1.92226463 56.57773537 4.125 54.375 C6.00439453 54.14794922 6.00439453 54.14794922 8.2578125 54.1796875 C9.06347656 54.18613281 9.86914062 54.19257812 10.69921875 54.19921875 C11.54097656 54.21597656 12.38273437 54.23273437 13.25 54.25 C14.52423828 54.26353516 14.52423828 54.26353516 15.82421875 54.27734375 C17.92459884 54.30094353 20.02483444 54.33681517 22.125 54.375 C21.22553924 67.41718101 16.95178357 78.45999077 10.9296875 89.87890625 C10.03636719 91.60947266 10.03636719 91.60947266 9.125 93.375 C8.62742187 94.22964844 8.12984375 95.08429688 7.6171875 95.96484375 C6.81141401 98.55945615 6.81141401 98.55945615 8.765625 101.25 C9.6176865 102.30621881 10.48891671 103.34715595 11.375 104.375 C12.30513952 105.51525642 13.23481272 106.65589337 14.1640625 107.796875 C14.65036133 108.38146484 15.13666016 108.96605469 15.63769531 109.56835938 C18.07849125 112.53321327 20.41132486 115.57944199 22.75 118.625 C23.40597168 119.46611328 23.40597168 119.46611328 24.07519531 120.32421875 C27.125 124.2597672 27.125 124.2597672 27.125 125.375 C22.91690116 125.49156783 18.70922004 125.56237611 14.5 125.625 C13.31019531 125.65851563 12.12039062 125.69203125 10.89453125 125.7265625 C-0.08121796 125.84919657 -0.08121796 125.84919657 -4.875 121.375 C-6.74671753 119.47716548 -8.23884039 117.49238302 -9.875 115.375 C-13.98089882 116.9214779 -17.79751678 118.85066474 -21.6875 120.875 C-34.57880368 127.38384451 -48.74127449 129.28140469 -62.875 125.375 C-71.35758014 122.42828975 -77.53364246 117.23397763 -82 109.40234375 C-85.88798533 100.29922425 -85.55578835 89.73939767 -82.875 80.375 C-77.50216015 67.78292643 -69.32607732 60.35003467 -57.875 53.375 C-57.215 53.375 -56.555 53.375 -55.875 53.375 C-56.29072266 52.27091797 -56.29072266 52.27091797 -56.71484375 51.14453125 C-57.07707031 50.16871094 -57.43929687 49.19289063 -57.8125 48.1875 C-58.17214844 47.22457031 -58.53179688 46.26164063 -58.90234375 45.26953125 C-62.26909972 35.25039 -61.86383529 24.31617669 -57.6875 14.6171875 C-52.37397167 4.0190087 -45.03523141 -1.73339193 -33.875 -5.625 C-22.01201839 -8.09187167 -9.93667261 -7.53816543 0 0 Z M-52.8125 69.8125 C-59.96716004 77.36244513 -61.32016706 83.73114574 -61.30859375 94.04296875 C-60.67650289 98.90038773 -59.06654593 102.21565802 -55.5625 105.625 C-49.98837393 109.25466348 -45.40719912 109.78580867 -38.8984375 109.0546875 C-32.17599929 107.5434417 -25.6563319 104.37034349 -20.875 99.375 C-22.07382813 97.81265625 -22.07382813 97.81265625 -23.296875 96.21875 C-23.8223291 95.53288818 -24.3477832 94.84702637 -24.88916016 94.14038086 C-26.05447348 92.61957321 -27.22082932 91.09956387 -28.38818359 89.58032227 C-31.40426745 85.64539632 -34.38824513 81.693068 -37.3046875 77.68359375 C-37.84254883 76.94882812 -38.38041016 76.2140625 -38.93457031 75.45703125 C-39.96538399 74.04488725 -40.98840629 72.62701748 -42.00292969 71.203125 C-43.22229091 69.53905557 -44.540808 67.94849946 -45.875 66.375 C-49.64374779 66.375 -50.18317967 67.22355311 -52.8125 69.8125 Z " fill="#00A550" transform="translate(2623.875,586.625)"/>
<path d="M0 0 C0.9583374 0.00523682 1.9166748 0.01047363 2.90405273 0.01586914 C4.45576172 0.02070312 4.45576172 0.02070312 6.03881836 0.02563477 C7.12743164 0.03401367 8.21604492 0.04239258 9.33764648 0.05102539 C10.97636719 0.05779297 10.97636719 0.05779297 12.64819336 0.06469727 C15.35723144 0.07652713 18.06616248 0.09300996 20.77514648 0.11352539 C19.74961013 8.71110627 18.72383091 17.30865813 17.69774723 25.90617371 C17.22123177 29.89894224 16.74479791 33.89172047 16.26855469 37.88452148 C15.80839231 41.74247538 15.34801015 45.600403 14.88747978 49.45831299 C14.71238928 50.92538532 14.5373761 52.39246688 14.36244392 53.85955811 C13.51737779 60.94641697 12.67217021 68.03301814 11.77514648 75.11352539 C16.57518627 74.96806964 18.72829819 72.61051297 21.84545898 69.31274414 C24.71931535 66.03747869 27.42929049 62.63573258 30.16186523 59.24243164 C33.2099611 55.53437666 36.45127283 52.00884544 39.71264648 48.48852539 C40.28063965 47.87227295 40.84863281 47.25602051 41.43383789 46.62109375 C46.51991538 41.17216337 46.51991538 41.17216337 50.20532227 41 C51.69781494 41.00785522 51.69781494 41.00785522 53.22045898 41.01586914 C54.29682617 41.0190918 55.37319336 41.02231445 56.48217773 41.02563477 C57.61010742 41.03401367 58.73803711 41.04239258 59.90014648 41.05102539 C61.60364258 41.05779297 61.60364258 41.05779297 63.34155273 41.06469727 C66.15280287 41.07650924 68.96394879 41.09298032 71.77514648 41.11352539 C68.77917246 45.90999962 65.35970019 49.90285025 61.46264648 53.98852539 C60.29123216 55.23252528 59.12065099 56.47731027 57.95092773 57.72290039 C57.39614746 58.31264648 56.84136719 58.90239258 56.26977539 59.51000977 C53.98260215 61.96380817 51.78940939 64.49244894 49.60717773 67.03930664 C48.07112625 68.77841824 46.5056824 70.47089455 44.91186523 72.15649414 C44.4054248 72.69580566 43.89898438 73.23511719 43.37719727 73.79077148 C42.36740542 74.86333503 41.35162486 75.93029839 40.3293457 76.9909668 C37.34836914 80.01598845 37.34836914 80.01598845 36.77514648 84.11352539 C38.06931329 86.78712175 39.41787205 89.38232289 40.83764648 91.98852539 C41.74371278 93.68193789 42.64857718 95.3759938 43.55249023 97.07055664 C44.0576416 98.01495605 44.56279297 98.95935547 45.08325195 99.93237305 C48.0466215 105.50419198 50.96461563 111.09945797 53.87277222 116.70025635 C54.89416963 118.66453115 55.92067794 120.62608051 56.94726562 122.58764648 C57.58029986 123.80575073 58.21304442 125.02400557 58.84545898 126.24243164 C59.69261475 127.86773804 59.69261475 127.86773804 60.55688477 129.52587891 C61.77514648 132.11352539 61.77514648 132.11352539 61.77514648 134.11352539 C57.85886985 134.25875473 53.94328495 134.34757296 50.02514648 134.42602539 C48.35838867 134.48886719 48.35838867 134.48886719 46.65795898 134.55297852 C38.50903559 134.67570327 38.50903559 134.67570327 35.33764648 132.24633789 C34.82202148 131.21250977 34.30639648 130.17868164 33.77514648 129.11352539 C33.38423828 128.37158936 32.99333008 127.62965332 32.59057617 126.86523438 C31.18351202 124.15872635 29.85225363 121.42255815 28.52514648 118.67602539 C23.6092529 108.67940597 23.6092529 108.67940597 18.46264648 98.80102539 C17.88901367 97.71176758 17.31538086 96.62250977 16.72436523 95.50024414 C14.91931354 92.81361341 14.91931354 92.81361341 11.54467773 92.25805664 C10.17375977 92.18651367 10.17375977 92.18651367 8.77514648 92.11352539 C8.73776367 92.90629883 8.70038086 93.69907227 8.66186523 94.51586914 C8.17289963 103.19261166 7.30028021 111.79601639 6.27514648 120.42602539 C6.14454834 121.54162842 6.0139502 122.65723145 5.87939453 123.80664062 C5.75218018 124.85279541 5.62496582 125.8989502 5.49389648 126.97680664 C5.37981445 127.9182251 5.26573242 128.85964355 5.14819336 129.82958984 C4.77514648 132.11352539 4.77514648 132.11352539 3.77514648 134.11352539 C-3.81485352 134.11352539 -11.40485352 134.11352539 -19.22485352 134.11352539 C-17.29742433 116.50352368 -15.27187455 98.90880693 -13.12329102 81.32446289 C-12.83850793 78.98890217 -12.55372813 76.65334104 -12.26895142 74.31777954 C-11.68019121 69.49288227 -11.09010342 64.66814937 -10.49926758 59.84350586 C-9.74098803 53.64908334 -8.98818162 47.45400771 -8.23651695 41.25877953 C-7.65434803 36.46828064 -7.06836003 31.67825469 -6.48128128 26.88835526 C-6.20155437 24.60066676 -5.92326588 22.31280192 -5.64643478 20.0247612 C-5.26304046 16.85901471 -4.87428823 13.69397178 -4.48413086 10.52905273 C-4.31425407 9.11130554 -4.31425407 9.11130554 -4.14094543 7.66491699 C-4.03452225 6.81066132 -3.92809906 5.95640564 -3.81845093 5.07626343 C-3.72740271 4.33057287 -3.63635448 3.58488232 -3.54254723 2.81659508 C-3.05595799 0.20812234 -2.67792669 0.13664391 0 0 Z " fill="#00A550" transform="translate(2254.224853515625,577.886474609375)"/>
<path d="M0 0 C0.495 0.495 0.495 0.495 1 1 C0.79931037 11.35437704 -0.73150607 21.71373685 -2.03125 31.9765625 C-2.22945936 33.56119693 -2.42741171 35.14586353 -2.62512207 36.7305603 C-3.03633073 40.02005183 -3.45004222 43.30921516 -3.86572266 46.59814453 C-4.39786546 50.80954872 -4.92445493 55.02162508 -5.44931793 59.23394203 C-5.8557874 62.49237599 -6.264709 65.75049843 -6.67442322 69.00852585 C-6.86963771 70.56256285 -7.06419418 72.11668266 -7.2580719 73.67088699 C-7.52834364 75.83380287 -7.80181074 77.99629097 -8.07617188 80.15869141 C-8.23081909 81.38665436 -8.38546631 82.61461731 -8.5447998 83.87979126 C-8.90134215 86.32374134 -9.33259166 88.62708981 -10 91 C-12.77141717 91.08089542 -15.54047819 91.14044062 -18.3125 91.1875 C-19.09818359 91.21263672 -19.88386719 91.23777344 -20.69335938 91.26367188 C-21.45068359 91.27333984 -22.20800781 91.28300781 -22.98828125 91.29296875 C-23.68477783 91.3086792 -24.38127441 91.32438965 -25.09887695 91.34057617 C-27.60450651 90.89170585 -28.46396443 89.99497303 -30 88 C-30.51171875 85.08203125 -30.51171875 85.08203125 -30.6875 81.8125 C-30.75324219 80.72582031 -30.81898438 79.63914062 -30.88671875 78.51953125 C-30.94279297 77.27236328 -30.94279297 77.27236328 -31 76 C-31.556875 76.66386719 -32.11375 77.32773437 -32.6875 78.01171875 C-39.67300232 86.09460572 -46.02511666 91.98077369 -57 93 C-63.60188135 93.08213849 -69.62851318 92.00839984 -75 88 C-79.59344736 83.30239284 -82.03585313 78.20256907 -84 72 C-84.27457031 71.13375 -84.27457031 71.13375 -84.5546875 70.25 C-87.67856449 54.46620046 -83.78871082 37.66758475 -75.26171875 24.2578125 C-65.67344437 10.44672298 -53.17961923 1.25643795 -36.62084961 -2.54638672 C-25.04964765 -4.54911548 -11.02527886 -4.26428621 0 0 Z M-51.11328125 24.5078125 C-57.25290307 32.61770633 -61.12648853 41.84138516 -62 52 C-62.06960937 52.70640625 -62.13921875 53.4128125 -62.2109375 54.140625 C-62.5360252 60.49233844 -60.78161764 66.29458063 -57.3125 71.5625 C-53.91567935 73.67403716 -50.82335128 73.70527839 -47 73 C-36.42489066 68.03617317 -31.80027548 56.33016059 -28 46 C-25.77468835 39.48709155 -25.1333359 32.86817784 -24.375 26.0625 C-24.2409375 24.90169922 -24.106875 23.74089844 -23.96875 22.54492188 C-23.64061389 19.69716924 -23.3178555 16.8489153 -23 14 C-24.89029967 13.94553758 -26.78106167 13.90699926 -28.671875 13.875 C-29.7247168 13.85179687 -30.77755859 13.82859375 -31.86230469 13.8046875 C-39.61053859 14.28699275 -45.95523768 18.9626541 -51.11328125 24.5078125 Z " fill="#00A550" transform="translate(2414,621)"/>
<path d="M0 0 C0.96703857 0.00201416 1.93407715 0.00402832 2.93041992 0.00610352 C20.18540791 0.24790791 20.18540791 0.24790791 24.25 4.3125 C24.21104205 6.65823267 24.103634 8.95930374 23.93945312 11.29736328 C23.86740032 12.37255565 23.86740032 12.37255565 23.79389191 13.46946907 C23.2168672 21.53237039 22.23716416 29.53777106 21.21875 37.5546875 C21.02046908 39.14124581 20.82251838 40.72784542 20.62487793 42.31448364 C20.21446577 45.60051899 19.80069017 48.88610654 19.38427734 52.17138672 C18.85040399 56.38496342 18.32438101 60.5994772 17.80068207 64.81432915 C17.39510791 68.07279172 16.98592376 71.33079273 16.57557678 74.58865738 C16.37999296 76.14430111 16.18543659 77.70007438 15.9919281 79.25597763 C15.72284315 81.41445392 15.44901118 83.57227433 15.17382812 85.72998047 C15.01918091 86.95635223 14.86453369 88.182724 14.7052002 89.44625854 C14.25 92.3125 14.25 92.3125 13.25 94.3125 C10.66554227 94.4206866 8.08562648 94.49987237 5.5 94.5625 C4.77039062 94.59601563 4.04078125 94.62953125 3.2890625 94.6640625 C-0.14998674 94.72659067 -2.33562869 94.58184135 -5.25 92.6875 C-7.18873182 89.61784129 -7.15663677 87.66514575 -7 84.0625 C-6.96390625 82.98484375 -6.9278125 81.9071875 -6.890625 80.796875 C-6.84421875 79.97703125 -6.7978125 79.1571875 -6.75 78.3125 C-7.56791016 79.29089844 -7.56791016 79.29089844 -8.40234375 80.2890625 C-15.47352551 88.48438085 -22.50432028 95.4241858 -33.75 96.3125 C-41.47831471 96.39560016 -46.93508406 94.81809843 -52.62890625 89.5859375 C-60.42677607 81.41363969 -62.11604977 71.28413288 -61.96484375 60.24609375 C-60.91071345 45.85242359 -56.18689857 33.87333129 -47.75 22.3125 C-47.04875 21.3225 -46.3475 20.3325 -45.625 19.3125 C-33.98858384 5.96593962 -17.27267008 -0.09682825 0 0 Z M-27.1875 27.5625 C-34.59556206 36.7109176 -38.11133266 46.66492816 -38.0625 58.375 C-38.07861328 59.15166016 -38.09472656 59.92832031 -38.11132812 60.72851562 C-38.1162336 66.52188238 -36.95895913 70.48189391 -33.3203125 75.14453125 C-30.68308702 77.10604971 -28.42093042 77.03612002 -25.21484375 76.890625 C-19.52587593 75.55628707 -15.76076027 71.36577961 -12.62646484 66.60644531 C-5.53772002 54.85086585 -2.39319134 43.9277618 -1.0625 30.25 C-0.93294922 29.00283203 -0.80339844 27.75566406 -0.66992188 26.47070312 C-0.3542052 23.41877526 -0.04780698 20.36621855 0.25 17.3125 C-11.03157603 16.87080082 -19.19144857 19.10051324 -27.1875 27.5625 Z " fill="#00A550" transform="translate(1666.75,617.6875)"/>
<path d="M0 0 C-0.99069902 8.19090181 -1.98192824 16.38173923 -2.97377491 24.57250214 C-3.4346655 28.37870886 -3.89539534 32.18493487 -4.35571289 35.99121094 C-6.53361806 53.99883047 -8.72891788 72.00383445 -11 90 C-13.055602 90.04636696 -15.11120789 90.09257322 -17.1668396 90.13760376 C-18.75114497 90.17444597 -20.33525394 90.21997294 -21.91918945 90.27026367 C-22.60198975 90.27775635 -23.28479004 90.28524902 -23.98828125 90.29296875 C-24.68477783 90.3086792 -25.38127441 90.32438965 -26.09887695 90.34057617 C-28.58804049 89.89465565 -29.44488626 88.95233909 -31 87 C-32.21320142 83.02952263 -32.08088494 79.1251319 -32 75 C-32.9590625 76.2684375 -32.9590625 76.2684375 -33.9375 77.5625 C-40.22250938 85.07602396 -48.14264008 90.48362419 -57.9375 91.8125 C-65.34404113 92.35197492 -71.1067958 90.71456336 -77 86 C-84.05379645 79.11415108 -86.53075957 69.90244632 -87.03125 60.23046875 C-86.85512737 42.02379151 -80.83294352 25.97106426 -68.25 12.75 C-51.02339892 -3.57129922 -22.29390569 -11.14695284 0 0 Z M-46.6796875 18.2421875 C-54.74392248 24.35145642 -60.6027838 33.58604596 -62.71875 43.53515625 C-63.1188186 47.041313 -63.25260838 50.53733544 -63.3125 54.0625 C-63.33030518 54.73555176 -63.34811035 55.40860352 -63.36645508 56.10205078 C-63.35736789 61.81579739 -62.12119214 66.56455717 -58.3125 70.9375 C-54.77620147 72.56228581 -51.73566178 72.93051939 -48 72 C-37.32701594 65.58421745 -31.08617831 52.65097645 -28 41 C-26.22238748 31.83374338 -24.88106076 22.35029348 -25 13 C-32.70709863 10.58933216 -40.23205613 14.05830131 -46.6796875 18.2421875 Z " fill="#00A550" transform="translate(3169,622)"/>
<path d="M0 0 C-0.99069902 8.19090181 -1.98192824 16.38173923 -2.97377491 24.57250214 C-3.4346655 28.37870886 -3.89539534 32.18493487 -4.35571289 35.99121094 C-6.53361806 53.99883047 -8.72891788 72.00383445 -11 90 C-13.055602 90.04636696 -15.11120789 90.09257322 -17.1668396 90.13760376 C-18.75114497 90.17444597 -20.33525394 90.21997294 -21.91918945 90.27026367 C-22.60198975 90.27775635 -23.28479004 90.28524902 -23.98828125 90.29296875 C-24.68477783 90.3086792 -25.38127441 90.32438965 -26.09887695 90.34057617 C-28.60004943 89.89250431 -29.45345944 88.97897585 -31 87 C-32.08492126 82.66031497 -32.08912966 78.45648287 -32 74 C-32.639375 75.010625 -33.27875 76.02125 -33.9375 77.0625 C-39.0501068 84.20276956 -46.69856842 89.7666606 -55.375 91.46484375 C-62.46453216 92.42668577 -67.82159881 91.74500457 -74.1875 88.25 C-82.366514 81.7067888 -85.67773714 73.5798726 -86.875 63.25 C-87.79517239 45.46766856 -82.31668897 28.84558151 -70.71484375 15.33984375 C-53.46700695 -2.78268525 -23.63791789 -11.81895894 0 0 Z M-46.6796875 18.2421875 C-54.74392248 24.35145642 -60.6027838 33.58604596 -62.71875 43.53515625 C-63.1188186 47.041313 -63.25260838 50.53733544 -63.3125 54.0625 C-63.33030518 54.73555176 -63.34811035 55.40860352 -63.36645508 56.10205078 C-63.35736789 61.81579739 -62.12119214 66.56455717 -58.3125 70.9375 C-54.77620147 72.56228581 -51.73566178 72.93051939 -48 72 C-37.32701594 65.58421745 -31.08617831 52.65097645 -28 41 C-26.22238748 31.83374338 -24.88106076 22.35029348 -25 13 C-32.70709863 10.58933216 -40.23205613 14.05830131 -46.6796875 18.2421875 Z " fill="#00A550" transform="translate(1955,622)"/>
<path d="M0 0 C6.0059024 3.84377753 10.82281073 9.11470884 12.63012695 16.14575195 C15.23365754 31.16197106 12.04629882 47.25892281 10.1875 62.1875 C9.90600905 64.51616839 9.62540433 66.84494409 9.34570312 69.17382812 C8.83210213 73.41886333 8.31678914 77.66364775 7.78930664 81.90698242 C7.63275352 83.16909798 7.63275352 83.16909798 7.47303772 84.45671082 C7.08215563 87.31308568 6.59896163 90.15623022 6.125 93 C-1.795 93 -9.715 93 -17.875 93 C-17.66294922 91.22431641 -17.45089844 89.44863281 -17.23242188 87.61914062 C-16.53006546 81.72835083 -15.83204967 75.83706007 -15.13694 69.94541168 C-14.71566232 66.37607012 -14.29268733 62.80694737 -13.86572266 59.23828125 C-13.45314369 55.78930944 -13.04516799 52.33982049 -12.64027405 48.88993835 C-12.41074591 46.9443593 -12.17654972 44.99933278 -11.94226074 43.05432129 C-10.49679627 31.49058649 -10.49679627 31.49058649 -11.875 20 C-16.75796016 18.37234661 -21.05703348 18.38107408 -25.8125 20.375 C-34.4454544 25.14320156 -39.8500474 34.90169294 -42.875 44 C-45.29931451 53.26985338 -45.94542509 62.93520903 -46.9375 72.4375 C-47.19681003 74.90756647 -47.45749943 77.3774522 -47.72227478 79.84693909 C-47.88585772 81.37355704 -48.04628424 82.90051741 -48.20314026 84.42784119 C-48.52533479 87.44268823 -48.91255612 90.11266835 -49.875 93 C-57.465 93 -65.055 93 -72.875 93 C-72.20441411 82.39789661 -71.12252252 71.90933863 -69.84375 61.3671875 C-69.64557383 59.71528706 -69.44762075 58.06335984 -69.24987793 56.41140747 C-68.83847312 52.98071717 -68.42476321 49.55031556 -68.00927734 46.12011719 C-67.47730544 41.72706878 -66.95068441 37.33339839 -66.42568207 32.93951225 C-66.01925059 29.54211405 -65.61031059 26.14502154 -65.20057678 22.74802017 C-65.00530679 21.12700033 -64.81075016 19.50589438 -64.6169281 17.88470078 C-64.34673784 15.6283885 -64.07323807 13.37250166 -63.79882812 11.11669922 C-63.64418091 9.83544159 -63.48953369 8.55418396 -63.3302002 7.23410034 C-62.97973406 4.74411318 -62.56114297 2.41281615 -61.875 0 C-59.27021117 -0.0809313 -56.66793347 -0.14045434 -54.0625 -0.1875 C-53.32451172 -0.21263672 -52.58652344 -0.23777344 -51.82617188 -0.26367188 C-46.37209976 -0.33770905 -46.37209976 -0.33770905 -43.92578125 1.32421875 C-41.76781877 4.76572769 -41.76607382 7.74127445 -41.8125 11.6875 C-41.82152344 12.68136719 -41.83054687 13.67523437 -41.83984375 14.69921875 C-41.85144531 15.45847656 -41.86304688 16.21773437 -41.875 17 C-41.34132813 16.34773437 -40.80765625 15.69546875 -40.2578125 15.0234375 C-30.28330738 3.32323946 -15.94688944 -5.60491579 0 0 Z " fill="#00A550" transform="translate(1781.875,619)"/>
<path d="M0 0 C5.28595672 4.25946422 8.20514197 8.32346885 8.9609375 15.25 C9.28465362 23.05842523 8.1769065 28.37201684 3.02734375 34.2890625 C-9.407285 46.36101458 -29.8038733 48.61536996 -46.34765625 50.421875 C-46.65518326 56.26488824 -46.27672456 60.16975251 -43.34765625 65.421875 C-37.68314841 70.67190666 -33.59928445 70.81989112 -26.02734375 70.7734375 C-20.65067663 70.25974319 -16.87743943 68.22339595 -12.34765625 65.421875 C-5.39644759 61.29848778 -5.39644759 61.29848778 -1.16015625 61.796875 C2.54748945 63.93907029 4.28496931 65.83494403 6.65234375 69.421875 C6.55317854 72.46500732 5.65218723 73.42203379 3.5 75.60546875 C-9.62269018 86.2250932 -22.31043709 91.52180635 -39.48828125 90.17578125 C-48.55207972 88.74532144 -56.01261577 85.12956492 -62.34765625 78.421875 C-63.99879499 76.01592998 -65.16499775 74.03082979 -66.34765625 71.421875 C-66.72019531 70.67679688 -67.09273437 69.93171875 -67.4765625 69.1640625 C-72.79467002 57.04544815 -71.62431864 41.70396237 -67.34765625 29.421875 C-61.61555635 15.27026793 -52.62775224 3.37805798 -38.3515625 -2.89453125 C-25.60319907 -7.37284252 -11.51220398 -7.73865292 0 0 Z M-35.03515625 14.984375 C-40.26525504 20.49718183 -43.73773697 27.01624632 -45.34765625 34.421875 C-35.34669927 34.21701368 -23.21311498 32.72618855 -15.46875 25.875 C-13.08386645 23.11679214 -12.42653741 22.14758166 -12.03515625 18.546875 C-12.10089349 15.39274441 -12.10089349 15.39274441 -13.91015625 13.109375 C-20.91697817 8.25849828 -28.30824995 11.07338297 -35.03515625 14.984375 Z " fill="#00A550" transform="translate(1528.34765625,623.578125)"/>
<path d="M0 0 C5.41650957 3.4284274 9.19042627 7.78962863 11 14 C12.05120545 21.32592666 11.13735922 27.79396116 7 34 C-4.10424909 47.2396816 -24.91048868 49.78980426 -41.18359375 51.60546875 C-43.89826563 51.69754117 -43.89826563 51.69754117 -45 53 C-44.79634766 54.75908397 -44.5110332 56.50897244 -44.1875 58.25 C-44.01605469 59.20390625 -43.84460937 60.1578125 -43.66796875 61.140625 C-43.01280959 63.94516599 -42.26257041 66.41104695 -41 69 C-38.55711372 70.31068333 -38.55711372 70.31068333 -36 71 C-35.01 71.495 -35.01 71.495 -34 72 C-23.67468776 72.97146755 -16.18659978 71.70319574 -7.8984375 65.40234375 C-5.07795015 63.31889734 -3.53609473 62.86399636 0 63 C3.67563031 65.35375226 7.34193493 67.983576 8.73046875 72.23828125 C8.86388672 73.11033203 8.86388672 73.11033203 9 74 C-4.11992911 85.60955927 -16.48589056 92.69312915 -34.75 91.9375 C-45.04591253 90.92391276 -53.04120117 87.83984846 -60 80 C-68.96463715 67.78817207 -69.40967142 54.18766498 -67.5703125 39.58984375 C-64.34484995 24.79651861 -56.10796996 12.04360719 -44 3 C-42.40487784 2.07164916 -40.77891567 1.19403172 -39.125 0.375 C-37.92230469 -0.23214844 -37.92230469 -0.23214844 -36.6953125 -0.8515625 C-25.09499691 -5.79430567 -11.23195603 -6.04797632 0 0 Z M-33.25 17.1875 C-38.12372147 22.17198787 -43 28.78951763 -43 36 C-31.97863842 35.55826206 -19.90313052 33.59243944 -11.625 25.75 C-9.69264271 23.01222907 -9.69264271 23.01222907 -10 19.375 C-10.72697518 16.03296644 -10.72697518 16.03296644 -12.6875 14.125 C-20.22356989 10.45880384 -26.62250866 12.72668852 -33.25 17.1875 Z " fill="#00A550" transform="translate(2208,622)"/>
<path d="M0 0 C4.43419832 3.322898 6.96527572 7.74333942 8.88671875 12.8671875 C9.88754009 20.87375826 8.43390518 27.31699029 4.07421875 34.0546875 C-8.14803157 47.14736514 -29.19753491 48.59117603 -45.86328125 50.8671875 C-46.52328125 50.8671875 -47.18328125 50.8671875 -47.86328125 50.8671875 C-45.958271 60.60428559 -45.958271 60.60428559 -40.86328125 68.8671875 C-34.66034311 71.99572 -27.18613012 71.77576657 -20.484375 70.3671875 C-16.96922051 69.1564885 -14.20430717 67.46670694 -11.23828125 65.2421875 C-8.12024319 62.92310251 -5.87995394 61.69626526 -1.86328125 61.8671875 C2.34843057 64.67499538 4.80040748 67.32436003 7.13671875 71.8671875 C-1.2438111 81.65314782 -12.59070726 88.62416136 -25.4765625 90.3515625 C-38.13768234 91.2607031 -48.43795206 90.14520516 -58.87109375 82.37109375 C-67.64754031 74.44949588 -70.19820811 63.30720152 -70.8203125 51.91357422 C-71.12101753 37.59249707 -66.50898801 24.18682418 -57.86328125 12.8671875 C-57.425 12.25359375 -56.98671875 11.64 -56.53515625 11.0078125 C-43.75466489 -5.59213605 -17.92617387 -10.89851241 0 0 Z M-37.1875 17.921875 C-41.38718186 22.79703016 -44.86328125 28.37863838 -44.86328125 34.8671875 C-34.58510389 34.4552365 -22.88203976 32.8308462 -14.86328125 25.8671875 C-12.45392372 22.9137815 -11.84923355 21.56957234 -11.92578125 17.7421875 C-12.65261954 14.85672379 -12.65261954 14.85672379 -14.48828125 13.0546875 C-22.95124868 8.82320379 -30.62082858 11.91374805 -37.1875 17.921875 Z " fill="#00A550" transform="translate(2907.86328125,623.1328125)"/>
<path d="M0 0 C1.47668858 0.0133035 2.95331108 0.03716415 4.4296875 0.0703125 C5.18378906 0.07933594 5.93789062 0.08835937 6.71484375 0.09765625 C8.57826004 0.1212438 10.44151343 0.15711531 12.3046875 0.1953125 C11.83077724 4.46674635 11.34966356 8.73733839 10.8671875 13.0078125 C10.73248047 14.22275391 10.59777344 15.43769531 10.45898438 16.68945312 C10.32685547 17.85283203 10.19472656 19.01621094 10.05859375 20.21484375 C9.87792358 21.82516479 9.87792358 21.82516479 9.69360352 23.46801758 C9.3046875 26.1953125 9.3046875 26.1953125 8.3046875 29.1953125 C15.5646875 29.1953125 22.8246875 29.1953125 30.3046875 29.1953125 C29.9746875 34.8053125 29.6446875 40.4153125 29.3046875 46.1953125 C21.7146875 46.1953125 14.1246875 46.1953125 6.3046875 46.1953125 C6.0365625 48.9796875 5.7684375 51.7640625 5.4921875 54.6328125 C4.58278941 63.95197768 3.47927848 73.24212543 2.27026367 82.52709961 C0.54389914 92.56885115 0.54389914 92.56885115 2.3046875 102.1953125 C6.39407969 103.55844323 8.44543701 102.83549396 12.3046875 101.1953125 C13.97083358 101.15365885 15.63868941 101.14810922 17.3046875 101.1953125 C18.17613619 102.7482401 19.02622407 104.31316686 19.8671875 105.8828125 C20.34285156 106.75292969 20.81851563 107.62304688 21.30859375 108.51953125 C22.47711898 111.6585108 22.49764061 113.08008998 21.3046875 116.1953125 C14.48116389 122.33648374 4.42556241 123.53485451 -4.3828125 123.1328125 C-9.71923038 122.47719545 -13.6634699 120.76121102 -17.6953125 117.1953125 C-25.60465405 107.05513103 -23.09956895 93.04943965 -21.63671875 80.9609375 C-21.19559984 77.45314613 -20.72838048 73.94925389 -20.2578125 70.4453125 C-20.02444593 68.63814257 -19.79201977 66.83085095 -19.56054688 65.0234375 C-17.75547369 51.078258 -17.75547369 51.078258 -16.6953125 46.1953125 C-17.31019531 46.21851563 -17.92507812 46.24171875 -18.55859375 46.265625 C-19.36683594 46.28367187 -20.17507812 46.30171875 -21.0078125 46.3203125 C-21.80832031 46.34351563 -22.60882812 46.36671875 -23.43359375 46.390625 C-25.6953125 46.1953125 -25.6953125 46.1953125 -28.6953125 44.1953125 C-28.3653125 39.9053125 -28.0353125 35.6153125 -27.6953125 31.1953125 C-20.7653125 29.7103125 -20.7653125 29.7103125 -13.6953125 28.1953125 C-13.14101562 26.34164062 -12.58671875 24.48796875 -12.015625 22.578125 C-11.2841871 20.15875349 -10.5523981 17.7394881 -9.8203125 15.3203125 C-9.45550781 14.09699219 -9.09070312 12.87367188 -8.71484375 11.61328125 C-8.36035156 10.44667969 -8.00585938 9.28007813 -7.640625 8.078125 C-7.31594238 6.99934082 -6.99125977 5.92055664 -6.65673828 4.80908203 C-5.14849055 0.70870109 -4.43628048 0.23447571 0 0 Z " fill="#00A550" transform="translate(3217.6953125,590.8046875)"/>
<path d="M0 0 C1.05960938 0.00676758 1.05960938 0.00676758 2.140625 0.01367188 C3.88545275 0.02546125 5.630237 0.04339676 7.375 0.0625 C6.80326828 9.82707588 5.74492232 19.3817156 4.375 29.0625 C11.635 29.0625 18.895 29.0625 26.375 29.0625 C25.715 34.6725 25.055 40.2825 24.375 46.0625 C16.785 46.0625 9.195 46.0625 1.375 46.0625 C1.25511719 48.31578125 1.13523437 50.5690625 1.01171875 52.890625 C0.64779933 59.07395767 0.07183627 65.21009193 -0.66796875 71.359375 C-0.76054962 72.13510864 -0.85313049 72.91084229 -0.94851685 73.71008301 C-1.33150524 76.89403681 -1.71952511 80.07721315 -2.12182617 83.25878906 C-2.41884135 85.6244806 -2.70075856 87.99158401 -2.98046875 90.359375 C-3.07514938 91.07599304 -3.16983002 91.79261108 -3.26737976 92.53094482 C-3.69813401 96.27205381 -3.95706549 98.96589377 -1.625 102.0625 C1.4124112 103.21179073 2.84486581 103.27455367 5.875 102.0625 C8.97559272 100.82226291 10.2452291 100.9416053 13.375 102.0625 C14.95703125 104.49609375 14.95703125 104.49609375 16.1875 107.5 C16.81591797 108.98306641 16.81591797 108.98306641 17.45703125 110.49609375 C18.375 113.0625 18.375 113.0625 18.375 115.0625 C9.28625426 120.86919867 -0.22759899 124.12701801 -11.0859375 122.625 C-17.110601 121.29030532 -21.10086447 119.35197103 -24.5625 114.125 C-29.58926292 104.94862743 -27.59007196 94.44616879 -26.3125 84.46484375 C-26.1127356 82.85253624 -26.1127356 82.85253624 -25.90893555 81.20765686 C-25.48609002 77.80444091 -25.05566861 74.40223388 -24.625 71 C-24.33543478 68.68040124 -24.04636721 66.3607403 -23.7578125 64.04101562 C-23.05262921 58.3807785 -22.34123824 52.72134829 -21.625 47.0625 C-22.56472656 46.97162109 -22.56472656 46.97162109 -23.5234375 46.87890625 C-24.34070312 46.79511719 -25.15796875 46.71132813 -26 46.625 C-26.81210938 46.54378906 -27.62421875 46.46257813 -28.4609375 46.37890625 C-30.625 46.0625 -30.625 46.0625 -32.625 45.0625 C-32.65194851 43.10424127 -32.67137218 41.14587774 -32.6875 39.1875 C-32.69910156 38.09695313 -32.71070312 37.00640625 -32.72265625 35.8828125 C-32.625 33.0625 -32.625 33.0625 -31.625 31.0625 C-29.734375 30.4296875 -29.734375 30.4296875 -27.375 29.9375 C-26.60671875 29.76992188 -25.8384375 29.60234375 -25.046875 29.4296875 C-22.53600614 29.04900738 -20.16059403 28.99955972 -17.625 29.0625 C-17.41875 27.78375 -17.2125 26.505 -17 25.1875 C-15.93213459 19.82495847 -14.32817191 14.68744534 -12.625 9.5 C-12.36380371 8.68998535 -12.10260742 7.8799707 -11.83349609 7.04541016 C-9.34858513 -0.36525846 -7.28810595 -0.08740348 0 0 Z " fill="#00A550" transform="translate(2468.625,590.9375)"/>
<path d="M0 0 C7.59 0 15.18 0 23 0 C19.97901377 27.99927475 16.60834436 55.9511374 13.16259766 83.90100098 C12.46362876 89.57443637 11.76709066 95.24817021 11.0703125 100.921875 C9.71584235 111.94820073 8.35857739 122.97417958 7 134 C-0.59 134 -8.18 134 -16 134 C-15.31259375 119.7038227 -13.62193124 105.58775906 -11.875 91.38671875 C-11.56462332 88.83848375 -11.25457024 86.29020932 -10.94482422 83.74189758 C-10.29883977 78.43572136 -9.64977678 73.12993543 -8.99804688 67.82446289 C-8.24521429 61.69563719 -7.49798394 55.56614799 -6.75372887 49.43627518 C-6.0342576 43.51133856 -5.31121444 37.58684234 -4.58648682 31.66254616 C-4.27944399 29.15036019 -3.97324751 26.63807064 -3.66790771 24.12567711 C-3.24262691 20.63116848 -2.81330032 17.13718102 -2.3828125 13.64331055 C-2.25706848 12.60389816 -2.13132446 11.56448578 -2.00177002 10.49357605 C-1.82517853 9.07063232 -1.82517853 9.07063232 -1.64501953 7.61894226 C-1.54399933 6.79443919 -1.44297913 5.96993612 -1.33889771 5.12044811 C-1 3 -1 3 0 0 Z " fill="#00A550" transform="translate(1570,578)"/>
<path d="M0 0 C7.59 0 15.18 0 23 0 C22.30821115 11.00539614 21.16746999 21.90217428 19.85546875 32.84765625 C19.7510528 33.72326139 19.64663685 34.59886654 19.53905678 35.50100517 C18.98718281 40.12654929 18.43122532 44.75158086 17.87182617 49.3762207 C17.29997909 54.1106749 16.74249547 58.84670563 16.18822765 63.58324528 C15.75440611 67.26742851 15.30980254 70.95025547 14.86239052 74.63281059 C14.65231665 76.37717669 14.44617777 78.12202198 14.24431419 79.86735725 C10.63552619 110.95802434 10.63552619 110.95802434 -0.22265625 119.8125 C-9.47322452 125.91113138 -19.22817365 126.88079508 -30 125 C-30.66 124.67 -31.32 124.34 -32 124 C-31.71767279 121.89455987 -31.4238102 119.79066411 -31.125 117.6875 C-30.96257812 116.51574219 -30.80015625 115.34398437 -30.6328125 114.13671875 C-30 111 -30 111 -28 108 C-24.95434394 107.37772207 -21.94110638 107.11349489 -18.84765625 106.8203125 C-15.86465855 106.27171776 -15.86465855 106.27171776 -14.39111328 103.84448242 C-12.84541719 100.68391641 -12.34062998 98.15498637 -11.89453125 94.66796875 C-11.80944305 94.02710327 -11.72435486 93.38623779 -11.63668823 92.72595215 C-11.35069989 90.54776764 -11.08163455 88.36782648 -10.8125 86.1875 C-10.61066638 84.62138641 -10.40791506 83.05539087 -10.2043457 81.48950195 C-9.59977597 76.80576425 -9.01298806 72.11991635 -8.42883301 67.43359375 C-7.95230949 63.61815014 -7.47210209 59.80317617 -6.99121094 55.98828125 C-4.63987775 37.32810637 -2.31212841 18.66507239 0 0 Z " fill="#00A550" transform="translate(1828,619)"/>
<path d="M0 0 C4.81721665 2.36316288 7.60160527 5.20321055 10 10 C10.94838947 15.32803075 9.99731458 19.45235029 7 24 C3.34834606 27.3777799 0.74146732 28.83255122 -4.25 29.3125 C-9.06700781 28.91108268 -11.0666205 27.7987508 -15 25 C-18.03242008 21.26001524 -18.83782324 17.78421445 -19 13 C-18.0724788 8.57771143 -16.72982117 5.69422014 -13.4375 2.5625 C-8.89794253 -0.34747274 -5.33576329 -0.63885193 0 0 Z " fill="#00A44F" transform="translate(1846,578)"/>
</svg>
