<?xml version="1.0" encoding="UTF-8"?>
<svg version="1.1" xmlns="http://www.w3.org/2000/svg" width="880" height="795">
<path d="M0 0 C3.46915048 -0.03730269 6.9260239 0.01093252 10.39453125 0.08984375 C11.15233887 0.10241211 11.91014648 0.11498047 12.69091797 0.12792969 C81.87224517 1.44566925 147.94657375 22.4480276 209.39453125 53.08984375 C210.21904785 53.50008789 211.04356445 53.91033203 211.89306641 54.33300781 C221.57207583 59.19123188 230.51988137 64.91350795 239.39453125 71.08984375 C240.08869141 71.57001953 240.78285156 72.05019531 241.49804688 72.54492188 C251.00708297 79.13338681 260.30738559 85.92990482 269.39453125 93.08984375 C270.66490234 94.08564453 270.66490234 94.08564453 271.9609375 95.1015625 C288.22393372 107.97099611 304.12989729 121.59065988 318.6640625 136.39453125 C320.5524213 138.29561976 320.5524213 138.29561976 323.45703125 140.58984375 C326.45981252 143.14540228 328.86244314 145.85856324 331.41015625 148.8515625 C333.64357447 151.37075274 335.99776856 153.72576418 338.39453125 156.08984375 C342.61138214 160.26870499 346.54721237 164.57309139 350.39453125 169.08984375 C351.27379862 170.09457424 352.15409348 171.09840605 353.03515625 172.1015625 C360.29397487 180.4072328 367.09255282 189.00095429 373.70166016 197.83056641 C375.42859769 200.13530824 377.16746459 202.43075111 378.90625 204.7265625 C387.00890188 215.49629085 394.40416123 226.57015148 401.39453125 238.08984375 C401.82185547 238.78754883 402.24917969 239.48525391 402.68945312 240.20410156 C410.19704907 252.49617949 416.98098621 265.19519187 423.39453125 278.08984375 C423.81508789 278.9303125 424.23564453 279.77078125 424.66894531 280.63671875 C425.0450293 281.425625 425.42111328 282.21453125 425.80859375 283.02734375 C426.14068848 283.71699219 426.4727832 284.40664063 426.81494141 285.1171875 C427.5319416 287.55752515 427.35045628 288.74448933 426.39453125 291.08984375 C424.2080409 293.10768735 422.06017851 294.91281612 419.70703125 296.71484375 C419.03220703 297.24190918 418.35738281 297.76897461 417.66210938 298.31201172 C411.04778566 303.43950216 404.28559451 308.34241118 397.39453125 313.08984375 C396.81799805 313.48880859 396.24146484 313.88777344 395.64746094 314.29882812 C327.72137304 361.08984375 327.72137304 361.08984375 307.39453125 361.08984375 C307.07742188 359.92453125 306.7603125 358.75921875 306.43359375 357.55859375 C295.60462924 319.01705266 276.26705924 283.94158064 248.87109375 254.75390625 C246.84854835 252.57823438 244.92284861 250.36819902 243.01953125 248.08984375 C237.96473041 242.27682278 232.14099763 237.20241133 226.39453125 232.08984375 C225.88148438 231.63206543 225.3684375 231.17428711 224.83984375 230.70263672 C209.23817003 216.88444448 192.02424726 205.14538179 174.39453125 194.08984375 C173.7406543 193.67927734 173.08677734 193.26871094 172.41308594 192.84570312 C109.22201109 153.44776267 21.80852291 113.97331143 -54.3125 131.08984375 C-71.00081803 135.21271592 -87.3743505 142.45520516 -97.0703125 157.30859375 C-100.93992492 164.31918928 -104.14938963 172.03244601 -104.60546875 180.08984375 C-104.65574219 180.775625 -104.70601563 181.46140625 -104.7578125 182.16796875 C-106.05128652 213.41830097 -86.84883722 243.16917111 -67.60546875 266.08984375 C-66.81785156 267.06179688 -66.03023437 268.03375 -65.21875 269.03515625 C-55.51636943 280.8312553 -44.48676455 291.39735848 -33.60546875 302.08984375 C-33.86650391 302.96680908 -34.12753906 303.84377441 -34.39648438 304.74731445 C-48.08055114 350.98496123 -58.77345658 398.1856194 -61.39453125 446.48828125 C-61.60521537 449.08671876 -62.04136104 451.54673521 -62.60546875 454.08984375 C-69.48211744 450.49523194 -75.47773054 445.81885911 -81.60546875 441.08984375 C-82.15654297 440.66783691 -82.70761719 440.24583008 -83.27539062 439.81103516 C-100.68244178 426.46395229 -116.94147542 411.80819 -132.48046875 396.33984375 C-133.18220215 395.6427832 -133.88393555 394.94572266 -134.60693359 394.22753906 C-139.1429363 389.67751304 -143.42455791 384.96649739 -147.60546875 380.08984375 C-148.45109375 379.125625 -149.29671875 378.16140625 -150.16796875 377.16796875 C-168.19313474 356.25415437 -183.74292106 333.51461155 -196.60546875 309.08984375 C-197.13648193 308.0855835 -197.13648193 308.0855835 -197.67822266 307.06103516 C-213.11080382 277.65150343 -224.50210994 245.29981332 -227.60546875 212.08984375 C-227.71503906 211.04828125 -227.82460937 210.00671875 -227.9375 208.93359375 C-232.03536294 164.78595038 -221.62310859 119.69487469 -194.60546875 84.08984375 C-193.97382813 83.24808594 -193.3421875 82.40632813 -192.69140625 81.5390625 C-155.84111059 33.99763168 -98.68002212 10.46180167 -40.29931641 2.79882812 C-26.87687946 1.13256627 -13.51340254 0.33673701 0 0 Z " fill="#FBC42A" transform="translate(228.60546875,0.91015625)"/>
<path d="M0 0 C66.71266625 -1.77034939 135.97760782 16.09086827 185.46191406 62.49609375 C198.65748046 75.13259776 209.43237048 89.08747809 217.85546875 105.30712891 C218.66571748 106.85174593 219.51947808 108.37337471 220.37988281 109.890625 C229.20491352 126.05411707 234.03459268 144.94594572 236.77832031 163.06640625 C236.93083252 164.03598267 236.93083252 164.03598267 237.08642578 165.02514648 C239.9067033 185.9610569 238.97763739 209.43117513 234.77832031 230.06640625 C234.58496094 231.02949707 234.39160156 231.99258789 234.19238281 232.98486328 C223.42904402 284.93292206 197.65062715 331.63816905 163.77832031 372.06640625 C163.34712891 372.58396484 162.9159375 373.10152344 162.47167969 373.63476562 C141.20513965 399.09985004 117.39110861 421.64877181 90.84375 441.52001953 C88.91337451 442.9652912 86.99020659 444.4197086 85.06738281 445.875 C74.97517961 453.45441149 64.4695607 460.3644933 53.77832031 467.06640625 C52.90256348 467.61619141 52.02680664 468.16597656 51.12451172 468.73242188 C-13.4414738 508.91940573 -92.50841421 528.01201814 -167.22167969 537.06640625 C-169.02064697 537.28683594 -169.02064697 537.28683594 -170.85595703 537.51171875 C-187.32816281 539.40779999 -203.9132677 539.26189848 -220.47167969 539.31640625 C-221.57316345 539.32194519 -222.67464722 539.32748413 -223.80950928 539.33319092 C-262.00067269 539.47340858 -262.00067269 539.47340858 -272.22167969 536.06640625 C-272.90832546 531.93201396 -273.58283773 527.79584094 -274.24804688 523.65795898 C-274.47388329 522.26261258 -274.70254511 520.86771933 -274.93457031 519.47338867 C-278.43187474 498.42053635 -279.55619144 477.51610184 -279.48242188 456.18676758 C-279.47167968 452.50390205 -279.48240168 448.82152299 -279.49511719 445.13867188 C-279.50226462 433.88231268 -279.30643506 422.69524737 -278.33105469 411.4765625 C-278.25356995 410.56184677 -278.17608521 409.64713104 -278.09625244 408.70469666 C-277.47748275 402.45011085 -277.47748275 402.45011085 -275.22167969 399.06640625 C-274.38697144 399.27003784 -274.38697144 399.27003784 -273.53540039 399.4777832 C-259.84920069 402.78424368 -246.21521621 405.46047671 -232.22167969 407.06640625 C-230.98792603 407.20997559 -230.98792603 407.20997559 -229.72924805 407.35644531 C-135.97691228 417.11739379 -42.27681245 371.0050313 29.02832031 313.50390625 C34.93526265 308.69744517 40.60384393 303.68878893 46.16894531 298.4921875 C48.41705055 296.40225734 50.69982942 294.37797886 53.02832031 292.37890625 C59.83570629 286.45944018 65.98039989 279.96766227 71.77832031 273.06640625 C72.23335937 272.53047852 72.68839844 271.99455078 73.15722656 271.44238281 C95.89267791 244.56396239 115.76125401 213.73089582 113.97363281 177.27832031 C112.95021528 165.68811678 106.3868169 154.77176935 98.01660156 146.9375 C84.94932733 136.01389728 69.34392455 131.44305611 52.77832031 129.06640625 C51.88371094 128.93492187 50.98910156 128.8034375 50.06738281 128.66796875 C19.14016698 125.05816753 -13.47333865 130.62057428 -43.06494141 139.36230469 C-43.95068848 139.61399414 -44.83643555 139.86568359 -45.74902344 140.125 C-46.51980225 140.35501709 -47.29058105 140.58503418 -48.0847168 140.82202148 C-50.78994839 141.13139391 -51.95212303 140.51842488 -54.22167969 139.06640625 C-55.91415611 137.51152953 -57.55642433 135.90111399 -59.15917969 134.25390625 C-59.99320313 133.40183594 -60.82722656 132.54976562 -61.68652344 131.671875 C-62.94142578 130.38216797 -62.94142578 130.38216797 -64.22167969 129.06640625 C-65.88692972 127.39832416 -67.55380835 125.73186737 -69.22167969 124.06640625 C-70.5306295 122.74644674 -71.83918693 121.42609808 -73.14746094 120.10546875 C-74.60964299 118.63405741 -76.07188399 117.16270465 -77.53417969 115.69140625 C-78.25541016 114.96179688 -78.97664062 114.2321875 -79.71972656 113.48046875 C-84.38568605 108.79358568 -89.19350873 104.36058059 -94.22167969 100.06640625 C-95.31585391 99.11637379 -96.40962515 98.16587693 -97.50292969 97.21484375 C-121.15395999 76.78845708 -146.15593333 58.30380778 -172.22167969 41.06640625 C-131.60280062 8.24085636 -48.79454123 1.4584742 0 0 Z " fill="#F16423" transform="translate(636.2216796875,-0.06640625)"/>
<path d="M0 0 C17.60267772 5.05802599 34.46864365 12.16454683 51 20 C51.86705566 20.41088867 52.73411133 20.82177734 53.62744141 21.24511719 C78.40879484 33.09490409 101.34845702 47.55624549 124 63 C123.42255518 66.24025285 122.53711592 67.81476014 120.15625 70.06640625 C119.57399658 70.62835693 118.99174316 71.19030762 118.3918457 71.76928711 C117.76753662 72.36104736 117.14322754 72.95280762 116.5 73.5625 C110.52590294 79.38869722 105.07046332 85.35687961 100 92 C99.38874268 92.78866455 99.38874268 92.78866455 98.76513672 93.59326172 C81.25567999 116.27073685 67.46814006 141.26295942 58.76757812 168.59667969 C58.01917669 170.93995697 57.23784726 173.27024206 56.453125 175.6015625 C48.59631767 199.60177144 45.03586353 224.90859031 43 250 C42.92942383 250.85384277 42.85884766 251.70768555 42.78613281 252.58740234 C36.95189578 327.24402808 46.48045341 421.56056705 96.82421875 480.578125 C108.89216944 494.01103241 124.23286196 506.24881863 143.04296875 507.3359375 C163.14706766 507.77533199 178.49127675 499.74404713 193 486 C196.22024249 482.4846958 199.13567279 478.80831452 202 475 C202.65355469 474.17242188 203.30710937 473.34484375 203.98046875 472.4921875 C223.6800779 446.77653005 234.58811055 414.13839434 242 383 C249.53421873 380.9730856 257.07175725 378.97200735 264.63671875 377.0625 C285.77700824 371.69261385 306.42861502 365.24263188 327 358 C328.15773926 357.59249512 329.31547852 357.18499023 330.50830078 356.76513672 C345.02987062 351.5966667 359.12193408 345.58699563 373.17529297 339.26611328 C377.29239644 337.4207115 381.42636024 335.61472924 385.5625 333.8125 C386.83468008 333.25661262 388.10682114 332.70063592 389.37890625 332.14453125 C390.24386719 331.76683594 391.10882812 331.38914062 392 331 C392.38076251 339.47258802 391.22661105 347.59141655 389.875 355.9375 C389.76362701 356.63563812 389.65225403 357.33377625 389.5375061 358.05307007 C383.22623809 397.41235114 372.27761423 436.00264809 355 472 C354.57460938 472.89315918 354.14921875 473.78631836 353.7109375 474.70654297 C342.1335144 498.88118411 327.99078361 521.26508277 311 542 C310.54044922 542.56396484 310.08089844 543.12792969 309.60742188 543.70898438 C298.38352612 557.39932732 286.05065207 570.19651898 272 581 C271.01 581.79535156 270.02 582.59070313 269 583.41015625 C228.02576409 616.11582059 176.59244034 632.03194335 124.31567383 626.22802734 C100.54909165 623.10975515 78.06967695 615.24654218 57 604 C55.83855469 603.38382813 54.67710937 602.76765625 53.48046875 602.1328125 C38.82662028 594.0606354 25.46216025 584.12845636 13 573 C12.4642334 572.52594727 11.9284668 572.05189453 11.37646484 571.56347656 C-0.93084958 560.63256604 -11.77372265 548.75401335 -21.73583984 535.65820312 C-22.9137633 534.11311696 -24.10670362 532.57951114 -25.30078125 531.046875 C-82.30638861 456.92946011 -108.19199744 352.93953335 -97.54263306 249.02482605 C-97.05302211 245.34629439 -96.52909324 241.67302691 -96 238 C-95.90052063 237.29415771 -95.80104126 236.58831543 -95.69854736 235.86108398 C-83.92362098 152.51312268 -53.03871844 66.07882416 0 0 Z " fill="#00A550" transform="translate(291,168)"/>
</svg>
